<?xml version="1.0" encoding="utf-8"?>
<!-- Generator: Adobe Illustrator 20.1.0, SVG Export Plug-In . SVG Version: 6.00 Build 0)  -->
<svg version="1.1" id="Layer_1" xmlns="http://www.w3.org/2000/svg" xmlns:xlink="http://www.w3.org/1999/xlink" x="0px" y="0px"
	 viewBox="0 0 960 560" style="enable-background:new 0 0 960 560;" xml:space="preserve">
<style type="text/css">
	.st0{fill:none;stroke:#000000;stroke-width:2.16;stroke-linecap:round;stroke-linejoin:round;stroke-miterlimit:10;}
</style>
<polyline class="st0" points="894.8,523.5 100.6,523.5 100.6,519 97.6,519 97.6,356.8 97.6,305.4 97.6,266.7 123.3,266.7 
	123.3,311.7 111.3,311.7 111.3,320.7 310.7,320.7 310.7,239.6 192.2,239.6 192.2,199 191.1,199 191.1,194.5 184.1,194.5 184.1,78.9 
	191.7,78.9 191.7,21.8 225.3,21.8 225.3,56.9 204.2,56.9 204.2,68.4 309.4,68.4 309.4,77.4 327.5,77.4 339.5,59.4 "/>
</svg>
