<?xml version="1.0" encoding="utf-8"?>
<!-- Generator: Adobe Illustrator 20.1.0, SVG Export Plug-In . SVG Version: 6.00 Build 0)  -->
<svg version="1.1" id="Layer_1" xmlns:svg="http://www.w3.org/2000/svg"
	 xmlns="http://www.w3.org/2000/svg" xmlns:xlink="http://www.w3.org/1999/xlink" x="0px" y="0px" viewBox="0 0 960 560"
	 style="enable-background:new 0 0 960 560;" xml:space="preserve">
<style type="text/css">
	.st0{fill:#FFFFFF;stroke:#555555;stroke-width:0.5;}
	.st1{fill:#EFEFEF;stroke:#555555;stroke-width:0.5;}
</style>
<g id="tr">
	<path class="st0" d="M570.4,222.9l-2.3,2.4l-8.4-0.2l-5-3l-4.9-0.1l-5.6,4l-5.3,0.2l-0.5,3h-6l-2.4,2.2v1.2l1.4,1.2v1.3l-0.6,1.6
		l0.6,1.3l1.9-1l1.9,2.1l-0.5,1.5l-0.7,1l1.1,1.2l5.3,1.1l3.7-1.6V240l1.8,0.4l4.3,2.5l4.7-0.7l2-1.9l1.3,0.5v2.2h1.8l1.6-3
		l13.6-1.5l6-0.7l-1.6-2.1l0-2.8l1.2-1.4l-4.4-3.5l0.2-3h-2.4L570.4,222.9L570.4,222.9z"/>
	<path class="st0" d="M534,223.5l-0.2,3.6l3.2-1l1.5-1l-0.4-1.6l-1.5-1.2L534,223.5L534,223.5z"/>
</g>
<g id="gr">
	<path class="st0" d="M517.3,231.5l-0.1,1.4l4.7,2.4l2.3,0.9l-1.2,1.2l-2.6,0.3l-0.4,1.2l0.9,2.1l3,1.6l1.3,0.1l0.2-3.5l1.9-2.3
		l-5.3-6.2l0.7-2.1l1.2-0.1l1.9,1.5l1.2-0.6l0.4-2.1l5.5,0.1l0.2-3.2l-2.3,1.6l-6.8-0.2l-4.4,2.3L517.3,231.5L517.3,231.5z"/>
	<path class="st0" d="M527.6,244.8l1.7,0.1l0.7,1h2.4l1.6-0.6l0.5,0.7l-1.1,1.4l-4.7,0.2l-0.9-1.1l-0.9-0.5L527.6,244.8L527.6,244.8
		z"/>
</g>
<g id="id">
	<path class="st0" d="M798.1,340.6l-2.4,8.9l-12.8,4.3l-3.8-4.5l-1.9,0.5l3.5,13.4l5.2,0.6l6.9,2.6v2.6l3.2-0.6l4.6-6.4v-5.2
		l2.6-5.2l2.9,0.6l-3.5-7.3l-0.5-4.7L798.1,340.6L798.1,340.6z"/>
	<path class="st0" d="M849.4,355.9l-4.3,0.5l-2.7,2l1.1,2.3l4.6,0.9v0.9l-2.9,2.4l1.4,5l1.4,0.1l1.2-4.9h2.3l0.9,4.8l11.1,9.2
		l0.3,7.1l3.8,4.1l1.7-0.1l0.4-25.2l-6.4-4.5l-6.1,4.1l-2.2,1.3l-3.6-2.3l-0.1-7.2L849.4,355.9L849.4,355.9z"/>
	<path class="st0" d="M806.1,365.8l2.3,2.8l-1.5,4.2v0.8h3.4l1.2-10.6l1.1,0.3l2,9.7l1.9,0.5l1.8-4.1l-1.8-6.3l-1.5-2.7l4.7-3.4
		l-1.1-1.5l-4.5,2.9H813l-2.2-3.2l0.7-1.4l3.7-1.8l5.6,1.7l1.7-0.1l4.2-3.9l-1.7-1.7l-3.9,3h-2.5l-3.8-1.8l-2.7,0.1l-3,4.9l-1.9,8.4
		L806.1,365.8L806.1,365.8z"/>
	<path class="st0" d="M831.3,346.8l-1.9,4.6l3,3.9h1l1.3-2.6l0.7-0.9l-1.3-1.4l-1.9-0.7L831.3,346.8L831.3,346.8z"/>
	<path class="st0" d="M837.2,362.1l-4.1,0.9l-1.2,1.3l1,1.7l2.7-1l1.7-1l2.5,2l1.1-0.9l-2-2.4L837.2,362.1L837.2,362.1z"/>
	<path class="st0" d="M737.7,333.6l-0.3,2.3l6.9,11.7h2l14.5,24.2l5.8,0.6l2.9-8.4l-4.6-2.9l-0.9-4.7L737.7,333.6L737.7,333.6z"/>
	<path class="st0" d="M769,375.2l-2.8,1.9l0.6,1.6l8.9,2l4.5,0.8l1.9,2l5.1,0.4l2.4,2l2.2-0.5l2-1.8l-3.7-1.7l-3.2-2.7l-8.3-2
		L769,375.2L769,375.2z"/>
	<path class="st0" d="M823.1,385.6l-5.2,4.4l0.5,1.1l2.2-0.4l2.6-2.4l5.1-0.7l-1-1.7L823.1,385.6L823.1,385.6z"/>
	<path class="st0" d="M808.3,384.8l-0.6,1.2l4.5,0.7l3.5-2l-2-0.6l-3.2,0.9l-1.2-1L808.3,384.8L808.3,384.8z"/>
	<path class="st0" d="M798.2,384l-2.2,1.2l1.3,1.4l3.2-1.2L798.2,384L798.2,384z"/>
	<path class="st0" d="M802,383.1l0.4,1.9l2.3,0.6l0.9-1.1l-1-1.5L802,383.1L802,383.1z"/>
	<path class="st0" d="M807.5,388.2l-2.8,0.4l2.5,2.1h2L807.5,388.2L807.5,388.2z"/>
</g>
<g id="sb">
	<path class="st0" d="M914.3,381.7l0.2,2.3l1.4,1.3l1.3-0.8l-1.2-2.5L914.3,381.7L914.3,381.7z"/>
	<path class="st0" d="M916.1,387.5l-1.2,1.3l1.3,2.3l1.5,0.4l-0.1-1.6L916.1,387.5L916.1,387.5z"/>
	<path class="st0" d="M919,386.1l1,2.6l2,2.4l1.1-1.8l-1.5-2.6L919,386.1L919,386.1z"/>
	<path class="st0" d="M924.2,390l0.6,3.2l1.4,2l1.2-2.5L924.2,390L924.2,390z"/>
	<path class="st0" d="M925.8,397l-0.5,0.9l1.7,2.3l1.2,0.1l-0.7-2.9L925.8,397L925.8,397z"/>
	<path class="st0" d="M922,401.5l-1.8,0.8l1.6,2.2l1.3-0.8L922,401.5L922,401.5z"/>
</g>
<g id="pg">
	<path class="st0" d="M870.7,365l-0.4,25l3.6-0.2l4.7-5.5l4,0.2l2.6,2.3l0.8,7l8.1,4.3l2.1-0.8v-2.6l-6.5-5.4l-3.2-7.4l2.6-1.2
		l-1.9-4.1l-3.8-0.1l-0.9-4.4l-10-6.8L870.7,365L870.7,365z"/>
	<path class="st0" d="M901.5,371.9l-1,0.2l-0.6,2.6l-1.9,1.2l-5.6,1l0.2,2.1l5.9-0.3l3.7-2.3l-0.2-4.1L901.5,371.9L901.5,371.9z"/>
	<path class="st0" d="M899,365.7l-0.9,1.3l4.9,4.4l0.7,2.6l1.3-0.2l0.2-2.6l-1.5-1.3L899,365.7L899,365.7z"/>
	<path class="st0" d="M908.1,376.5l1.3,3.5l2.2,2.2l0.7-0.6l-0.2-2.3l-2.5-3.1L908.1,376.5L908.1,376.5z"/>
</g>
<g id="sj">
	<path class="st0" d="M498.5,64.4l-1.7-1.7l-3.7,1.8h-6.9l-1.1,4l3.9,3.4l1.7-0.2l2.4-4.1l2,1.5l-1.5,2.9l-0.7,4.2l1.7,2.7l3.6-6.1
		l4.7-5.7l-1.8-1.6L498.5,64.4L498.5,64.4z"/>
	<path class="st0" d="M500.5,57.1l-3,2.8l1.8,2.8h3.2l1.3,1.8l4,2.1l4.6-2.7l3.1-2.7l-1.1-2.2l-3.1-1.8l-2.3,2.1l-1.6-1.9l-1.2,0.1
		l-1.6,3.4l-2.3-2.3l-0.2-1.6L500.5,57.1L500.5,57.1z"/>
	<path class="st0" d="M507.4,69.6l-2.4,2.2l-2,1.6l1,1.7l1.9,0.6l3.1-1.5l1.5-1.8l-1.3-2.2L507.4,69.6L507.4,69.6z"/>
</g>
<g id="jp">
	<path class="st0" d="M825.2,220.7l-5,5.7l0.9,1.4l2.4,0.3l4.6-3.5l3.2-0.6l2.9,3.4l2.2-0.8l0.9-3.3l4.2-0.1l4.1-4.9l-2.1-8.2
		l-1-4.3l2.1-1.8l-4.9-7.4l-1.3,0.1l-2.6,3v2.5l1.2,1.4l0.4,6.5l-3,3.7l-1.8-1.1l-1.4,3.1l-0.3,2.8l1.1,1.7l-0.7,1.3l-2.2-1.9h-1.6
		l-1.4,0.8L825.2,220.7L825.2,220.7z"/>
	<path class="st0" d="M833.6,176.2l-1.6,1.4l0.8,3l1.4,1.4l-0.1,4.5l-1.8,0.7l-1.4,3.1l4,5.5l2.6-0.9l0.5-1.4l-2.8-2.6l1.8-2.3
		l1.9,0.3l1.5,1.6l0.1-3.2l4-3.2l2.2-0.6l-1.9-3.1l-0.9-1.4l-1.5,1l-1.3,1.6l-2.7-0.6l-2.8-1.9L833.6,176.2L833.6,176.2z"/>
	<path class="st0" d="M848.3,173.2l-2.7,3.8l0.2,1.9l1.4-0.6l3.2-4L848.3,173.2L848.3,173.2z"/>
	<path class="st0" d="M852,167.6l-1,2.7l0.1,1.8l1.7-1.1l1.6-3.1v-1.2L852,167.6L852,167.6z"/>
	<path class="st0" d="M820.1,230.3l-1.7,1.7l0.7,2.4l1.5,0.1l1,5.1l1.2,1.3l2.1-1.9l0.9-3.3l-2.5-3.6L820.1,230.3L820.1,230.3z"/>
	<path class="st0" d="M829.1,227l-2.8,2.7l-0.1,3.1l0.7,0.9l3.8-3.2l-0.3-3.2L829.1,227L829.1,227z"/>
</g>
<path id="tw" class="st0" d="M804,262.9l-3.6,2.8l-0.2,5.3l3.1,3.6l0.8-0.7L804,262.9L804,262.9z"/>
<path id="kp" class="st0" d="M794.6,207.7l1.9,0.8l0.6,6.6l3.7,0.2l3.5-4.1l-1.2-1.1l0.1-4.4l3.2-3.9l-1.6-3l1.1-1.2l0.6-3.1
	l-1.9-0.8l-1.6,0.8l-2,6l-3.2-0.3l-3.7,4.4L794.6,207.7L794.6,207.7z"/>
<path id="kr" class="st0" d="M804.9,211.7l6.3,5.1l1.1,5l-0.2,2.7L809,228l-2.7,0.1l-3-6.5l-1.1-3.1l1.2-0.9l-0.3-1.3l-1.5-0.7
	L804.9,211.7L804.9,211.7z"/>
<path id="mm" class="st0" d="M744.8,319.4l-2.8-4.5l2.1-2.9l-1.9-3.6l-1.8-0.3l-0.3-6l-2.7-5.3l-0.8,1.3l-1.8,3.1l-2.3,0.3l-1.1-1.5
	l-0.6-4l-1.7-3.2l-7-6.6l1.7-1.1l0.3-4.8l2.6-4.3l1.1-10.7l3.7-2.5l0.1-3.9l2.2,0.7l3.5,5.1l-2.6,5.6l1.7,4.4l4.3,1.7l0.8,4.7
	l5.8,0.9l-1.6,2.8l-7.3,2.9l-0.8,4.7l5.4,6.9l0.2,3.7l-1.3,1.3l0.1,1.2l4,5.9l0.1,6.1L744.8,319.4L744.8,319.4z"/>
<path id="th" class="st0" d="M745.4,285.5l3.3,4.3v5.2l1.1,0.6l5.3-2.5l1,0.3l6.3,7.3l-0.2,5l-2.1-0.3l-1.8-1.2l-1.4,0.1l-2.4,4
	l0.5,2.2l1.9,1l-0.1,2.4l-1.4,0.7l-4.7-3.2v-2.9l-1.9-0.1l-0.8,1.3l-0.4,12.9l3,5.5l5.4,5.2l-0.2,1.5l-2.9-0.1l-2.6-3.9h-2.7
	l-3.4-2.8l-1-2.9l1.5-2.4l0.5-2.2l1.6-2.9l-0.1-6.6l-3.9-5.7l-0.2-0.7l1.3-1.3l-0.3-4.5l-5.2-6.6l0.6-3.8L745.4,285.5L745.4,285.5z"
	/>
<g id="ru">
	<path class="st0" d="M755.3,22.4l2.7,2.3l2-0.8l0.6-3.2l-4-2.8l-2.6,1.7l-6.4,0.6v2.9l-6.8,0.1v4.7l7.9,5.9l2.1-1.5l-0.5-4.2l5-1.3
		l-1-2l-1.8-1.8L755.3,22.4L755.3,22.4z"/>
	<path class="st0" d="M835.2,83.8L837,90l3.6,1l3.6-5.7l-2.1-3.9l0.8-3.4h5.4l-1.3,2.6l0.5,9.3l-7.7,19.1l0.8,4.1l-0.3,7l14.4,20.9
		l2.8,0.8l0.3-17.1l2.8-2.6l-3.1-6.7l2.6-2.8l-5.6-7.5l-3.1,0.3l-1-12.4l8-2.1l0.5-3.6l4.1-1l2.3,2.1l2.8-11.4l4.9-8.3l3.9-2.1
		l3.3,0.3v-3.9l-5.4-1l-7.4-6.2l3.6-4.1l-3.1-7l2.6-2.6l3.1,4.1l7.7,2.8l8.5,0.8l1-3.6l-4.4-4.4l4.9-6.7l-11-3.9l-2.8,5.7l-3.6-4.7
		l-20.3-7l-19.3,3.4l-2.8,1.6v1.6l4.1,2.1l-0.5,4.9l-7.4-3.1L811,42.2l-2.8-5.9h-11.3l-5.1,5.4l-18.2-4.1l-16.7,3.4l-2.1,5.2
		l2.6,0.8l-0.3,3.9L741,52.5l1,5.2l-14.9-2.6l3.6-6.7l-15.1-0.8l1.3,7l-4.9,2.3l-4.1-3.9l-16.7,2.8l-6.4,5.9l-0.3,3.6l-4.1,0.3
		l-0.5-4.1L693,50.2v-7.8l-8.5-2.3l-11,3.6l-4.6-4.7h-2.1l-2.6,5.2l2.1,2.3l-14.6,8l-12.6,9.6l-7.7,10.6v4.4l8.2,3.4l-4.1,3.1
		l-8.7-3.1l-3.6,3.1l-5.4-6.2l-1,2.3l5.9,18.6l1.5,0.5l4.1-2.1l2.1,1.6v3.4l-3.9-1.6l-2.3,1.8l1.5,3.4l-1.3,8.8l-8,0.8L616,114
		l4.6-2.8l1-7.8l-5.1-6.7l-1.8-11.6l-8.2-1.3l-0.8,4.1l1.5,2.1l-3.3,2.8l1.3,7.8l4.9,2.1l1,5.7l-4.9-3.1l-12.6-2.3l-1.5,4.1l-10,3.6
		l-1.5-2.6l-13.1,7.2l-0.3,4.9l-5.1,0.8l1.5-3.6v-3.6l-5.1-1.8l-3.3,1.3l2.8,5.4l2.1,3.6v2.8l-3.9-0.8l-0.8-0.8l-3.9,4.1l2.1,3.6
		l-8.7-0.3l2.8,3.6l-0.8,1.6h-4.6L539,134l-0.8-6.5l-5.4-2.1v-2.6l11.3,2.3l6.2,0.5l2.6-3.9l-2.3-4.1l-16.4-6.5l-5.7,1.4l-1.9,1.7
		l0.6,3.8l2.4,0.4l-0.6,6l7.4,17.5l-5.4,8.5l-0.4,1.9l2.7,1.9l-2.5,1.6l-1.6,0l0.3,7.5l2.3,3.2l0,3.1l2.9,0.3l4.4,1.7l4.7,6.4
		l0.1,1.7l-1.5,2.6l3.5-0.2l3.4,1l4.6,6.5l11.3,1l-0.5,7.7l-3.9,3.3l0.8,1.3l-3.9,4.1l-1,3.9l2.3,3.4l7.4,2.6l3.1-1.8l19.8,7.5
		l0.8-2.1l-4.1-3.9V212l-2.6-0.8l0.5-4.1l4.1-4.9l-7.4-5.5l0.5-7.7l7.9-5.2l9.2,0.5l1.5,2.8l9.5,0.5l6.9-3.9l-3.6-3.9l0.8-7.2
		l18-8.8l13.8,6.2l4.6-4.1l13.6,12.9l10.3-1l3.6,3.6l9.8,1l6.4-8.8l8.2,3.6l4.4,0.8l4.4-3.9l-3.9-2.6l3.3-5.2l9.5,3.1l2.1,4.1
		l4.1,0.3l2.6-1.8l6.9-0.3l0.8,1.8l8,0.5l5.4-5.7l11,1.3l3.3-1.3l1-6.2l-3.3-7.5l3.3-2.8h10.5l10,11.9l12.8,7.2h3.9l0.5-3.1l4.6-2.8
		l0.5,16.8l-4.1,0.3v4.1l2.3,2.8l-0.4,3.7l1.7,0.7l1-2.6l1.5,0.5l1,1l4.6-1l4.6-13.5l0.5-16.8l-5.9-13.5l-7.4-9l-3.6,0.5v2.8
		l-8.7-3.4l3.3-7.2l2.8-19.1l11.8-3.6l5.6-3.6h6.2l-1.5,2.1l1.5,2.6l5.4-5.7l3.1,0.3l-0.5-3.4l-4.9-1l3.3-12.2L835.2,83.8
		L835.2,83.8z"/>
	<path class="st0" d="M815.4,134.5l-0.1,6.3l7.9,12.2l2.8,10.6l5,9.4l2,0.7l1.7-1.4l0.8-2.3l-7.1-7.8l0.2-4l1.6-0.7l0.4-2.4
		l-14-19.8L815.4,134.5L815.4,134.5z"/>
	<path class="st0" d="M762.2,33.1l-3.6-0.9l-2.1,2.2l-0.9,3l4.8-0.5l3.7-1.8L762.2,33.1L762.2,33.1z"/>
	<path class="st0" d="M762.6,19.6l1.8,3.5l7.1-0.8l2-2.5l-0.5-2.2l-2-0.8l-1.8,1.4l-5.3,1.2L762.6,19.6L762.6,19.6z"/>
	<path class="st0" d="M559.3,48.9l1.8,0.7l-1.2,2.1v3l-2.6,1.6h-2.8l-1.6-2l0.2-2.1l1.2-1.6h2.5L559.3,48.9L559.3,48.9z"/>
	<path class="st0" d="M596.7,62.4l-0.5,2.5l-4,3.5l-8.6,2l-7,11.7l-1.2,3.4l7,1.8l1.1-4.2l2.1-6.6l5.5-2.8l4.6-3.5l3.3-1.4h1.8v-4.8
		L596.7,62.4L596.7,62.4z"/>
	<path class="st0" d="M574.1,88.3l4.7,0.5l1.6,5.5l4,4.2l-1.4,2.8h-2.5l-2.3-2.7l-5.1-0.2l-2.1-2.8v-2l3.2-0.9L574.1,88.3
		L574.1,88.3z"/>
	<path class="st0" d="M566,47v2.1l1.8,1.4l2.5-0.2l2.1-2V47h-1.9l-1.6,0.5l-1.2-1.4L566,47L566,47z"/>
	<path class="st0" d="M576,47.1l1.2,2.7l2.5,0.2l1.8-0.7l-0.9-2.5l-2.3-0.5L576,47.1L576,47.1z"/>
	<path class="st0" d="M586,43.6l-1.9-0.4l-1.8,1.8l0.9,1.6l0.5,2.5l2.3-1.8l0.5-2L586,43.6L586,43.6z"/>
	<path class="st0" d="M648.3,27.8l-2.3-1.4h-2.6l-0.5,1.6l-2.8,1.6l-2.1,0.7l-0.3,2.1l4.9,0.4L648.3,27.8L648.3,27.8z"/>
	<path class="st0" d="M653.7,28.4l-1.2,2.7l-2.5-0.2l-3.9,2.8l-1.1,3.5h2.5l1.4-2.3l3.3,2.5l3.2-1.4l2.3-2l-0.9-3l-1.2-2.1
		L653.7,28.4L653.7,28.4z"/>
	<path class="st0" d="M658.8,30.3l1.2,5l1.9,4.6l2.1-3.7l4-0.9v-2.7l-2.6-2L658.8,30.3L658.8,30.3z"/>
	<path class="st0" d="M854.3,13.1l-3-0.9l-3.4,1.3l-1.7,2.5l2.2,2.9l5.7-2.5l1.1-1.3L854.3,13.1L854.3,13.1z"/>
	<path class="st0" d="M857.7,144.1l-1.3,1.6l0.1,2.5l1.2-0.1l2-3.4L857.7,144.1L857.7,144.1z"/>
	<path class="st0" d="M855.4,150.1v4.3l1.4,0.5l1-1.6v-3.3L855.4,150.1L855.4,150.1z"/>
	<path class="st0" d="M517.2,164.2l-1.5-0.2l-2.8,3.3v1.5l0.9,0.4l1.8,0.1l3-2.4l0.4-0.8L517.2,164.2L517.2,164.2z"/>
</g>
<path id="lk" class="st0" d="M694.8,323.9l0.3,2.8l0.3,2l-1.5,0.3l0.8,4.5l2.3,1.3l3.5-2l-1-4.8l0.3-1.8l-3.3-3L694.8,323.9
	L694.8,323.9z"/>
<path id="in" class="st0" d="M685.1,329l4.7-2.3l2.8-10l-0.1-12.3l15.9-17.2V283l3.3-1.3l-0.1-4.7l-3.5-6.9l2-3.7l4.4,4.1l5.7,0.3
	v2.3l-1.8,1.9l0.4,1l3,0.1l0.6,3.4h0.9l2.3-4.1l1.1-10.7l3.8-2.7l0.1-3.7l-1.5-2.9l-2.4-0.1l-9.4,6.2l0.6,4l-6.6,0l-2.3-2.8
	l-1.3,0.2l0.4,4l-14.3-1l-8.8-3.9l-0.5-4.9l-5.9-3.7l-0.1-7.5l-4-4.6l-9.3,0.9l1,4l4.6,3.7l-7.9,16.1l-5.3,0.4l-0.9,1.9l5.2,4.8
	l-0.3,4.9l-5.3-0.1l-0.6,2.4l4.4-0.2l0.1,1.9l-3.2,1.7l2,3.8l3.9,1.3l2.4-1.8l1.1-3.2l1.4-0.6l1.6,1.7l-0.5,4.1l-1.1,1.9l0.3,3.3
	L685.1,329L685.1,329z"/>
<g id="it">
	<path class="st0" d="M487.5,227.2l-2.7,1.4l0.4,5.3l2.2,0.4l1.6-1.6v-5L487.5,227.2L487.5,227.2z"/>
	<path class="st0" d="M482.1,210.5l-0.6,1.6l0.2,1.7l2.4,2.8l3.8-0.1l8.5,9.8l5.3,1.5l3.1,3l0.7,6.7l1.7-1l1.5-3.7l-0.4-2.6l2.5-0.2
		l0.4-1.5l-7-3.3l-6.6-6.5l-2.6-3.9l-0.6-3.7l3.4-0.8l-0.9-2.4l-2.1-1.7l-1.8-0.1l-2.5,0.7l-2.3,3.3l-1.4,0.9l-2.2-1.3L482.1,210.5
		L482.1,210.5z"/>
	<path class="st0" d="M502.7,237.1l-1.5-0.8l-5.1,0.8l0.2,1.4l4.5,2.3l0.7,0.7l1.2,0.2L502.7,237.1L502.7,237.1z"/>
</g>
<path id="mt" class="st0" d="M502.9,244.7l-1.7,0.3l0.1,1.9l1.5,0.5l0.7-0.6L502.9,244.7L502.9,244.7z"/>
<path id="rw" class="st0" d="M549.1,356.4l2.9,2.6l-0.1,2.8l-4.5,0.1v-3.1L549.1,356.4L549.1,356.4z"/>
<path id="ug" class="st0" d="M549.6,355.6l3.1,2.9l1.9-1.2l5.2-0.9l0.9,0.1l0.3-2l3-6.2l-2.5-5.2l-8.1,0.1l-0.1,2.1l1.1,1l-0.2,2.1
	L549.6,355.6L549.6,355.6z"/>
<path id="ke" class="st0" d="M562.4,342.8l2.7,5.3l-3.3,6.8l-0.4,2.1l16.3,10.1l5-7.9l-2.6-2.1l-0.1-10.4l3.2-3.5l-5.1,1.7l-3.9,0.1
	l-6-5.1l-1.9-0.8l-3.5,0.3l-0.6,1L562.4,342.8L562.4,342.8z"/>
<path id="mw" class="st0" d="M558.6,396.8l3.2,3.3l-0.1,4.2l0.6,1.8l4.2-4.6l-0.5-5.8l-2.3-1.7l-2-10.2l-3.5-0.1l1.6,7.3
	L558.6,396.8L558.6,396.8z"/>
<path id="mz" class="st0" d="M552.5,431.4l2.7,2.3l6.5-3.9l1-5.9v-9.7l10.4-8.5l1.8,0.1l6.3-6l-1-12.4l-16.7,2.1l0.5,3.8l2.9,2.2
	l0.7,6.8l-5.6,5.5l-1.3-3.1l0.2-4.1l-3.2-3.5l-7.9,3.7l7.4,3.8l0.2,11l-4.9,7.3L552.5,431.4L552.5,431.4z"/>
<path id="zw" class="st0" d="M535.6,409.9l9.2,10.3l7,1.8l4.7-7.4l-0.4-9.8l-7.6-3.9l-2.9,1.3l-4.3,6.5l-5.9-0.1L535.6,409.9
	L535.6,409.9z"/>
<path id="na" class="st0" d="M506.9,440.2l3.4,0.2l2,2l4.8,0.1l1.2-13.5v-8.9l3.1-0.6l1.2-9.3l7.8-0.2l2.7-2.3l-4.6-0.2l-6.3,0.9
	l-6.8-2.5h-19.1l0.5,5.4l6.4,9.4l-1.1,4.8l0.1,2.5L506.9,440.2L506.9,440.2z"/>
<path id="bw" class="st0" d="M519.1,429.3l2.2,0.7l-0.3,6.3l2.3,0.3l5.2-4.7l6.2,0.7l1.7-4.2l7.9-7.2l-9.5-10.9l-0.1-1.8l-1-0.3
	l-2.9,2.6l-7.5,0.2l-1,9.3l-2.9,0.7L519.1,429.3L519.1,429.3z"/>
<path id="sz" class="st0" d="M552.2,432.1l-2.6,0.4l-1.1,3l2,1.8h2.4l2-2.9L552.2,432.1L552.2,432.1z"/>
<path id="ls" class="st0" d="M538.4,443.7l3.1-2.4l1.5,0.1l1.8,2.2l-0.2,2.2l-3,1.1v0.9l-3.3-0.2l-0.8-2.4L538.4,443.7L538.4,443.7z
	"/>
<path id="za" class="st0" d="M545.3,421.5l-8.1,7.5l-1.9,4.6l-6.4-0.8l-5.3,4.7l-3.5-0.3l0.3-6.5l-1.3-0.4l-0.9,13.4l-6.3-0.1
	l-1.9-2.2l-2.8,0l2.5,7.2l4.5,4.3l-3.2,3.7l2.1,4.7l4.8,1.8l3.8-3.3l11,0.1l0.8-1l4.9-0.9l16.5-16.4l-0.1-5.2l-1.8,2.3h-2.6
	l-3.2-2.7l1.6-4.1l2.8-0.6l-0.3-8.4L545.3,421.5L545.3,421.5z M541.5,440.4l1.5-0.1l2.5,2.7l-0.1,3.1l-2.9,1.5l-0.2,1l-4.5,0.1
	l-1.4-3.4l1.3-2.5L541.5,440.4L541.5,440.4z"/>
<path id="eg" class="st0" d="M532.8,257.5l2.7,0.1l5.3,1.5l2.5,0.1l3.1-2.6h1.5l2.7,1.5h3.4l0.6,0l2.1,6.1l0.6,2l0.6,3l-1,0.7
	l-1.7-0.9l-2-6.5l-1.8-0.1l-0.1,2.2l1.2,3.8l9.6,11.8l0.2,5.1l-2.8,3.2l-26.2-0.3L532.8,257.5L532.8,257.5z"/>
<path id="tn" class="st0" d="M484.8,241.5l5.6-2.3l1.9,1.2l0.1,1.5l-0.9,1.1l0.1,2l0.9,0.5v3.6l-1,1.7l0.1,1.1l3.8,1.3l-3.1,4.7
	l-1.2-0.1l-0.2,3.8l-1.3,0.2l-1.1-1l0.3-3.9l-3.7-3.6l-0.5-3.1l1.8-1.4L484.8,241.5L484.8,241.5z"/>
<path id="ly" class="st0" d="M490.1,262.6l1.6-0.3l0.5-3.7h0.8l3.3-5.4l8,2.3l2.2,3.4l7.9,3.6l4.1-1.7l-0.4-1.7l-1.8-1.7l0.2-1.2
	l2.9-2.5h5.8l2.2,2.9l4.6,0.7l0.6,37.7l-3.5-0.1l-20.9-10.8l-2.3,1.3l-8.6-2.1l-2.3-3.1l-3.4-0.5l-1.7-3.1L490.1,262.6L490.1,262.6z
	"/>
<path id="dz" class="st0" d="M483.8,241.6l-4.2-1.4l-17.3,3.3l-3.8,2.9l2.3,11.9l-6.9,0.3l-4.1,6.7l-9.9,2.4l0,4.9l32.5,24.9
	l5.5,0.5l18.5-14.5l-1.8-2.3l-3.5-0.5l-2.1-3.5v-14.5l-1.4-1.4l0.2-3.7l-3.7-3.7l-0.5-4l1.6-1.2l-0.7-4.2L483.8,241.6L483.8,241.6z"
	/>
<path id="bi" class="st0" d="M547.4,362.9l4.4-0.1l-1.1,3.8l-1.1,1h-1.3l-1-2.6L547.4,362.9L547.4,362.9z"/>
<path id="tz" class="st0" d="M562.1,388.6l17.8-2.2l-4-7.8l-0.2-7.4l1.3-3.6L560,357l-5.3,0.9l-1.8,1.4l-0.2,3.1l-1.2,4.3l-1.2,1.5
	l-1.8,0.2l3.4,11.9l5.6,2.6l3.9,0.1L562.1,388.6L562.1,388.6z"/>
<path id="cf" class="st0" d="M506,340.2l4.8,5.1l1.9-2.4l3,0.1l0.6-2.4l2.9-1.8l6.1,4.2l3.5-3.5l13.7,0.6l-12.7-13.1l1.7-1.1
	l0.2-2.3l-2.9-1.4h-4.2l-6.8,6.8l-0.2,2.8l-5.4-0.2l-0.2,1.2l-3.5-0.4l-3.2,6L506,340.2L506,340.2z"/>
<path id="cd" class="st0" d="M499.6,372.6l10.5-0.2l2.1,3l-0.1,2.2l0.8,0.7h5.2l1.5-3h2.1l0.9,0.9l2.9-0.1l0.9,10.3l5.1,0.2v0.8
	l13.6,6.1l0.6,1.2h2.8l-0.3-4.3l-5.1-2.5l0.3-3.3l2.2-5.2l5.1-0.2l-4.4-14.4l0.1-6.1l6.9-10.8l0.1-1.5l-1-0.6l0-2.9l-1.3-0.1
	l-1.3-1.6l-20.8-0.9l-3.8,3.7l-6.2-4.1l-2.2,1.3l-1.6,13.4l-3.9,3l-1.2,2.7l0.2,4l-7.1,5.8l-1.9-0.9l0.3,1.1L499.6,372.6
	L499.6,372.6z"/>
<path id="zm" class="st0" d="M525.3,402.2l3.2,4.5l5,0.3l1.8,1l5.2,0.1l4.5-6.3l12.6-5.7l1.1-5l-1.5-7.1l-6.6-3.8l-4.4,0.3l-2.2,4.9
	l0.1,2.2l5.2,2.5l0.3,5.5l-4.5,0.2l-1.1-1.8l-12.4-5.3l-0.4,4.1l-5.9,0.2L525.3,402.2L525.3,402.2z"/>
<g id="ye">
	<path class="st0" d="M584,304.7l1.5,4.4v4.3l3.5,3.2l24.9-10.1l0.2-2.8l-4-7.2l-10,3.2l-5.7,5.7l-6.7-3.9L584,304.7L584,304.7z"/>
	<path class="st0" d="M612.2,315.3l2.2,2.4l2.9-1.8l1.1-0.4l-1.3-1.3l-2.6,0.8L612.2,315.3L612.2,315.3z"/>
</g>
<g id="ao">
	<path class="st0" d="M496.7,370l1.8,2.3l2.3-2.2l-0.7-2.3l-0.6,0L496.7,370L496.7,370z"/>
	<path class="st0" d="M498.8,373.6l3.5,13l-0.1,4.1l-5.1,5.5l-0.8,8.9l19.6,0.2l6.4,2.3l5.3-0.7l-3.1-3.8l0-11l6-0.3v-4.3l-4.9-0.2
		l-1-10.1l-2.1,0l-1.1-1l-1.2,0.1l-1.6,3.1h-6.2L511,378l0.4-2.1l-1.7-2.5L498.8,373.6L498.8,373.6z"/>
</g>
<path id="es" class="st0" d="M457.7,218.7h-13l-2.6-1.2l-1.3,0.1l-1.5,3.2l0.5,3.3l5,0.5l0.6,2.1l-2.2,12.2l0.1,2.2l3.5,1.9l4.1,0.3
	l8.1-2l4-5l0.1-5.1l7-6.4l0.4-2.8l-6.4-0.1L457.7,218.7L457.7,218.7z"/>
<path id="pt" class="st0" d="M439.9,225l-0.6,8.8l-1.8,1.6l0.2,1l1.3,2.1l-0.8,2.6l1.4,0.5l3.2-0.4l-0.2-2.6l2.1-11.8l-0.4-1.6
	L439.9,225L439.9,225z"/>
<path id="mg" class="st0" d="M604.7,390.2l-2.2,5.2l-3.7,6.6l-6.5,0.5l-2.8,3.3l0.5,10l-4,4.7l0.5,8l3.4,3.9l4-0.5l4-3l-0.9-4.7
	l9.3-16.1l-1.9-2l1.9-3.9l2,0.6l0.6-1.6l-1.9-8l-1.1-3.3L604.7,390.2L604.7,390.2z"/>
<path id="mn" class="st0" d="M687.9,183.1l5.9-7.9l7.1,3.3l4.9,1.3l5.9-5.5l-4-3l2.7-3.7l7.9,2.8l2.7,4.5l5,0.1l2.6-1.9l5.3-0.2
	l1.2,2l8.9,0.4l5.6-5.7l7.8,0.8l-0.4,7.8l3.4,0.8l4.2-1.9l4.4,2.2l-0.1,1.1l-3.2,0.1l-3.3,7l-2.6,0.3l-10.1,13.2l-10.3,4.5l-6.4,0.5
	l-5.4-3.5l-6.8,3.7l-6.7-2.1l-1.9-4.9l-12.8-0.9l-6.5-11.1l-3.2-0.2L687.9,183.1L687.9,183.1z"/>
<g id="cn">
	<path class="st0" d="M684.5,183l-3.5,8.9l-4.9-0.3l-5.1,11.2l4.4,5.6l-9,12.4l-4.6-0.8l-3.1,3.9l0.8,2.3l3.6,0.3l1.8,4.1l3.6,0.8
		l11,14.2v7.2l5.4,3.4l5.9-1l7.4,4.4l9,2.6l4.4-0.5l4.9-0.5l10.3-6.7l3.3,0.5l1.3,3l2.8,0.8l3.9,5.7l-2.6,5.7l1.5,3.9l4.4,1.6
		l0.8,4.7l5.1,0.5l0.8-2.3l7.4-3.9l4.6,0.3l5.4,5.9l3.6-1.6l2.3,0.3l1,2.8l1.8,0.3l2.6-3.6l10.3-3.9l9.2-11.1l3.1-10.6l-0.3-7
		l-3.9-0.8l2.3-2.6l-0.5-4.1l-9.8-9.8v-4.9l2.8-3.6l2.8-1.3l0.3-2.8h-7.2l-1.3,3.9l-3.3-0.8l-4.1-4.4l2.6-6.7l3.6-3.9l3.3,0.3
		l-0.5,5.9l1.8,1.6l4.4-4.4l1.5-0.3l-0.5-3.4l4.1-4.9l3.1,0.3l1.8-5.7l2.1-1.1l0.2-3.5l-2-2.1l-0.2-5.6l3.9-0.3l-0.3-14.4l-2.8,1.7
		l-1,3.7l-4.6,0l-13.3-7.5l-9.6-11.6L765,153l-2.5,2.2l3.2,7.3l-1.1,6.8l-3.9,1.6l-2.2-0.2l-0.2,6.7l2.3,0.5l4.1-1.8l5.4,2.6v2.6
		l-3.9,0.3l-3.1,6.7l-2.8,0.3l-10,13.2l-10.5,4.7l-7.2,0.5l-4.9-3.4l-6.9,3.6l-7.4-2.3l-1.8-4.9l-12.6-0.8l-6.7-10.9h-2.8l-2.3-5
		L684.5,183z"/>
	<path class="st0" d="M775.8,285.2l-2.4,0.7l-1.8,2.2l1.5,2.8l2.1,0.2l2.4-2.2l0.6-2.8L775.8,285.2L775.8,285.2z"/>
</g>
<g id="fr">
	<path class="st0" d="M470,191.8l-2.3,0.6l-4.5,4.9l-1.4,0.1l-1.8-1.3l-1.2,0.3l-0.9,2.8l-6.6,0.2l0.2,1.5l4.5,3l5.2,4.2l-0.1,5
		l-2.8,4.9l6.1,2.9l6.1,0.2l1.9-2.2l3.9,0.1l1.1,1l3.9-0.3l2-2.6l-2.5-3l-0.2-1.9l0.5-2.1l-1.3-1.8l-2.2,0.6l-0.3-1.6l4.8-5.3v-3.2
		l-3.2-1.8l-1.6-0.3L470,191.8L470,191.8z"/>
	<path class="st0" d="M487.8,220.7l-2,2l-0.2,1.8l1.6,1l0.6-0.1l0.4-2.6L487.8,220.7L487.8,220.7z"/>
</g>
<g id="nz">
	<path class="st0" d="M932.3,501.5l1.1,12.1l-1.5,5.5l-5.4,4l0.4,4.7v5.1l1.5,1.8l14.9-12.8V519h-3.6l-5.1-17.2L932.3,501.5
		L932.3,501.5z"/>
	<path class="st0" d="M921.4,527.8l2.9,5.5l-8,7.7l-0.7,4l-5.4,0.7l-9.1,8.4l-8.3-4l-0.7-2.9l15.2-6.6L921.4,527.8L921.4,527.8z"/>
</g>
<g id="au">
	<path class="st0" d="M777.2,446.4l-0.4,25.9l-4,2.9l-0.4,2.6l5.4,3.6l13.4-2.6h6.9l2.5-3.7l15.2-2.9l10.9,3.3l-0.7,4.4l1.5,4.4
		l8.3-1.5l0.4,2.2l-5.4,4l1.8,1.5l4-1.5l-1.1,12.1l7.6,5.8l4.4-1.5l2.2,2.2l12.7-1.8l12-19.4l4.4-1.1l8.7-16.1l2.2-13.9l-5.4-6.9
		l2.2-1.5l-4.4-13.5l-4.7-3.3l0.7-18.3l-4.4-3.3l-1.1-10.2h-2.2l-7.3,24.1l-4,0.4l-9.1-9.1l5.1-13.5l-9.4-1.8l-10.5,2.9l-2.9,8.4
		l-4.7,1.1l-0.4-5.8L808,416.8l0.4,4.4l-2.9,4h-7.3l-15.6,6.6L777.2,446.4L777.2,446.4z"/>
	<path class="st0" d="M843.1,516.1l-1.8,7.3l0.4,5.1l5.4-0.4l6.2-9.5L843.1,516.1L843.1,516.1z"/>
</g>
<g id="fk">
	<path class="st0" d="M314.3,528.3l-2.7-0.3l-2.7,1.8l1.9,2.1L314.3,528.3L314.3,528.3z"/>
	<path class="st0" d="M317,526.9l-0.9,2.8l-2.5,2.2l0.2,0.7l4.3-1.7l1.8-2.2L317,526.9L317,526.9z"/>
</g>
<g id="cl">
	<path class="st0" d="M290.9,534.3l-4.4,9.6l7.5,0.8l0.1-6.4L290.9,534.3L290.9,534.3z"/>
	<path class="st0" d="M289.4,532.8l-3.3,3.6l-0.4,4.3l-6.3-3.6l-6.7-9.7l-2-3.5l2.8-3.6l-0.3-4.5l-3.2-1.3l-2.5-1.9l0.5-2.5l3.3-0.9
		l0.7-14.6l-5.1-2.9l-3.4-76.2l0.9-1.5l6.6,15.2l2.1,0l0.7,2.4l-2.8,3.4l-3.2,18.3l4.6,14.1l-2.1,10.6l7.5,31.3l0.8,18.3l5.3,6.2
		L289.4,532.8L289.4,532.8z"/>
	<path class="st0" d="M267.7,494.5l-1.3,2l0.7,3.5l1.3,0.1l0.7-4.4L267.7,494.5L267.7,494.5z"/>
</g>
<g id="ar">
	<path class="st0" d="M311.8,436.4l2,1.9l-7.5,11.2l-2.6,2.9l0.9,12.8l5.8,7.1l-4.9,8.5l-3.7,1.6h-4.2l1.2,6.6l-6.6,2.3l1.6,5.6
		l-4,12.6l4.9,4L292,520l-4.5,7.1l2.4,4.9l-5.8,0.9l-4.8-5.9l-0.8-18.2l-7.4-31l2.2-10.8l-4.8-13.8l3.2-18l2.9-3.5l-0.7-2.6l3.7-3.4
		l8.3,0.6l4.7,5l5.4,0.1l5.5,3.4l-1.6,3.8l0.4,3.8l7.8-0.4L311.8,436.4L311.8,436.4z"/>
	<path class="st0" d="M294.9,539.1l0.3,5.9l4.5-0.4l3.8-2.5l-6.5-1.3L294.9,539.1L294.9,539.1z"/>
</g>
<path id="uy" class="st0" d="M306.6,450.4l-2.1,2.2l0.9,12l6.6,1.9l8.4-8.4L306.6,450.4L306.6,450.4z"/>
<path id="py" class="st0" d="M297.8,417.3l2.2,2.5l-0.3,5.2l6.5-0.4l4.9,6.3l-0.4,5.6l-3.2,4.8l-6.5,0.3l-0.3-2.7l1.8-4.4l-6.3-4
	H291l-4-4.3l2.9-8.2L297.8,417.3L297.8,417.3z"/>
<path id="bo" class="st0" d="M264,390l8.4-3.7l2.8,0.3l1.8,7.7l12.8,4.3l2.1,6.5l5.3,0.7l2.2,5.6l-1.6,5.1l-8.6,0.7l-3.2,8.1
	l-6.7-0.1l-2.1-0.4l-3.9,3.8l-1.9-0.2l-6.6-15.3l1.8-2.7l0.6-10.8l-1.6-6.4L264,390L264,390z"/>
<path id="pe" class="st0" d="M229.6,366.3l-2,2l0.1,3.2l17.3,31.5l18,11.6l2.8-4.7l0.7-10.2l-1.5-6.4l-4.9-8.3l-2.9,0.9l-1.3,1.5
	l-5.8-6.7l1.5-7.9l6.7-4.4l-0.5-4.1l-6.9-0.3l-3.6-6l-2-0.7l0.1,3.6l-8.8,10.5L230,370L229.6,366.3L229.6,366.3z"/>
<path id="ec" class="st0" d="M234.9,352.3l-4.8,3l-0.3,4.5l-1,1.5l3,2.9l-1.3,1.4l0.3,3.7l5.4,1.3l8.2-9.8l0-3.4l-4-0.3L234.9,352.3
	L234.9,352.3z"/>
<path id="gf" class="st0" d="M308.4,337.9l6,3.7l-3.1,6.2l-1.1,1.4l-3.3-1.9l0.1-6.7L308.4,337.9L308.4,337.9z"/>
<path id="sr" class="st0" d="M299.2,337.3l2.1,1.9l3.2-2l2.9,0.1l-0.4,1.1l-1.2,2.6l-0.2,6.4l-5.9,2.4l0.3-4.1l-3.8-3.5l0.2-1.8
	L299.2,337.3L299.2,337.3z"/>
<path id="gy" class="st0" d="M290.9,330.1l7.4,6.7l-2.9,3.4l-0.2,2l3.9,4l-0.1,3.8l-6.7,2.6l-4-5.4l0.9-6.5l-1.7-4.9L290.9,330.1
	L290.9,330.1z"/>
<path id="br" class="st0" d="M320.7,457.5l6.4-12.3l0.2-10.3l11.9-7.7h6.7l5.2-8.9l0.9-17l-2.1-4.6l12.6-11.5l0.5-12.7l-17.1-8.4
	l-20.7-6.5l-9.8-1l2.6-5.5l-0.7-8.4l-2.1-0.7l-3.2,6.3l-1.7,2.1l-4.2-1.9l-14.3,5l-4.8-6l0.8-6.3l-4.5,4.6l-5-2.7l-0.5,0.7l0,2.2
	l4.3,2.3l-6.4,6.8l-4.1,0l-4.1-4.2l-4.6,0.1l-0.6,5l2.7,3.2l-3.1,10.1l-3.7,0.3l-5.9,3.7l-1.4,7.3l5.1,5.4l0.9-1.1l3.6-1l3,5.1
	l8.7-3.7l3.4,0.2l2.3,8.2l12.4,3.9l2.1,6.6l5.3,0.6l2.5,6.3l-1.7,5.6l2.2,2.9l-0.3,4.4l6-0.6l5.5,6.9l-0.4,4.9l3.2,2.7l-7.8,11.8
	L320.7,457.5L320.7,457.5z"/>
<path id="ve" class="st0" d="M255.6,321.7l0.4,2.6l3.3,1.1l0.8-4.9l3.5-3.6l3.5,4.1l8.1,2.2l6.8-1.4l4.6,5.7l3.5,2.2l-3.8,5.9
	l1.3,4.4l-2.2,2.7l-2.3,1.9l-4.9-2.5l-1.1,1.1v3.5l3.6,1.7l-2.7,2.9l-2.7,2.9l-3.5-0.3l-3.5-3.9l-0.7-14.6l-12-4.1l-2.2-6.4
	L255.6,321.7L255.6,321.7z"/>
<path id="co" class="st0" d="M258.9,315.5l-2.1-0.2l-13.9,11.5l-1.5,4l-1.9,0.2l0.8,8.9l-4.9,11.9l5.3,4.5l6.8,0.4l4.6,6.8l6.7,0.2
	l-0.2,5.1h2.5l2.7-9.3l-2.5-3.2l0.6-5.9l5.3-0.4l-0.6-13.8l-11.8-3.8l-2.7-7.4L258.9,315.5L258.9,315.5z"/>
<path id="pa" class="st0" d="M225.1,325.5l-1.5,4.7l4.9,1.3l3.1,0.6l0.5-3.6l3.3-1.7l2.9,1.5l1.1,1.8l1.4-0.2l1.1-3.3l-3.6-1.5
	l-2.8-1.5l-2.8,1.9l-3.3,1.7l-3.3-1.3L225.1,325.5L225.1,325.5z"/>
<path id="cr" class="st0" d="M221.8,320.8l1.4,2.8l1.2,1.5l-1.6,4.6l-3-2.1l-4.8-4.4v-2.9L221.8,320.8L221.8,320.8z"/>
<path id="ni" class="st0" d="M222.2,307.6l2.2,0.4l0.1,4.6l-2.6,7.4l-7-0.7l-1.6-3.6l2.1-4.4l4-3.7L222.2,307.6L222.2,307.6z"/>
<path id="hn" class="st0" d="M211.8,304.2l9.4-0.4l2.8,3.3l-1.7-0.4l-3.4,0.1l-4.4,4.1l-1.9,4.2l-1.2-0.7l0-4.6l-2.7-1.8
	L211.8,304.2L211.8,304.2z"/>
<path id="sv" class="st0" d="M205.7,311.9l4.8,2.4l-0.1-3.8L208,309L205.7,311.9L205.7,311.9z"/>
<path id="ie" class="st0" d="M448.7,179.4l-0.9,6.1l-8.2,3h-2.6l-1.9-1.3v-1.1l4.1-2.6l-1.1-2.3l0.2-3.2l3.6,0.2l1.6-3.8l-0.2,3.4
	l2.8,2.2L448.7,179.4L448.7,179.4z"/>
<path id="is" class="st0" d="M414.8,129.1l-2-1.1l-2.7,1.7l-2.3,2.1l0.1,1.2l3,0.4l-0.2,2.1l-1.1,1.1l0.3,0.7l3,0.2v3.5l4.3,0.8
	l2.6,1.5l2.9,0.1l4.9-2.5l3.8-5l0.1-3.4l-2.3-2l-1.9-1.6l-0.9,0.6l-1.3,1.7l-1.5-0.2l-1.5-1.6l-1.9,0.2l-2.8,2.3l-1.7,1.8l-0.9-0.8
	l-0.1-2l0.9-0.6L414.8,129.1L414.8,129.1z"/>
<path id="gl" class="st0" d="M327.8,60.4l-1.4,2.2l2.5,2.5l-1.1,2.5l3.6,4.7l4.4-1.4l5.8-0.6l6.7,7.2l4.4,11.9l-3.6,7.5l5-0.8
	l2.8,1.7l0.3,3.6l-6.1,0.3l3.3,3.3l4.2,0.8l-9.2,12.2l-1.1,7.5l1.9,6.1l-1.4,3.6l2.5,7.8l4.7,5.3l1.4-0.3l3.1-0.8l0.3,4.4l1.9,2.8
	l3.6-0.3l2.8-10.3l8.3-10.3l12.5-5l7.8-9.7l3.6,1.7h7.5l6.1-6.1l7.5-3.1l0.8-4.7l-4.7-4.2l-4.2-1.4l-2.2-5.8l5.3-3.1l8.3,4.4
	l2.8-3.1l-4.4-2.5l9.4-12.8l-1.7-5.6l-4.4-0.3l1.7-5l5.6-2.5l11.4-10l-3.3-3.6L430,52.7l-6.7,6.7l3.9-8.6l-4.4-1.1l-2.5,4.4
	l-3.6-3.1l-10,1.1l2.8-4.4l16.4-0.6l-4.2-5.6l-17.8-3.3l-7.2,1.1l0.3,3.6l-7.5-2.5l0.3-2.5l-5.3,1.1l-1.1,2.8l5.6,1.9L383,48
	l-4.2-4.7l-5.8-1.7l-0.8,4.4h-5.8l-2.2-4.7l-9.2-1.4l-5,2.5l-0.3,3.3l-6.4-0.8l-3.9,1.7l0.3,3.9v1.9l-7.2,1.4l-3.3-2.2l-2.2,3.6
	l3.3,3.6l6.9-0.8l0.6,2.2l-5.3,2.5L327.8,60.4L327.8,60.4z"/>
<g id="ca">
	<path class="st0" d="M161.4,59l2,3.1l1,4.1l5.1,1.3l3.6-3.8l3.1,1.5l8.7,0.8l6.1-2.6l1,8.5h3.6v-3.6l3.6,0.3L208,79l5.9,3.6
		l-3.1,4.9l1.3,1.3l11.4,2.3l0.3,5.1l3.1,0.5l0.8-7.7l4.8-1.3l3.6,5.4l7.6,3.6l3.8,0.8l2.5-3.1l0.3-4.9l4.6-2.8l1.5,4.1l-4.1,7.2
		l0.5,3.6L255,98l4.6-4.1l0.3-5.4l-2.5-4.1l0.8-3.3l6.1-3.1L267,80l0.5,17.9l4.3-3.8l2.5,1.5l-3.6,6.1l4.6,1l6.6-10.3l5.6,5.9
		l-2.3,10.5l-5.6,3.1l-5.3-2.6l-9.7,2.1l1,3.3l-2.5,4.1l-7.9,1.8l-8.9,6.9l-7.9,10.5l-1,3.3l5.3,2.1l2,5.1l7.4,7.4l11.7,5.1
		l-2.5,11.8l-0.3,3.3l3.1,2.1l4.1-5.4l0.5-10.3l6.4-0.3l3.1-5.9l0.5-9l8.1-15.9l10.2,3.6l5.3,7.4l-2.3,7.4l4.1,2.3l9.9-6.7l2.8,18.2
		l9.2,11l0.3,5.6l-10.2,2.6l-4.8,5.1l-10.2-2.3l-5.1-0.3l-8.9,6.9l5.3-1.3l6.6-1.3l1.3,1.5l-1.8,5.6l0.3,5.1l3.1,2.1l3.1-0.8
		l1.5-2.3h2l-3.3,6.1l-6.4,0.3L296,212h-3.6l-1-3.1l5.1-5.1l-6.1,2.1l-0.3-8.7l-1.8-1l-5.3,2.3l-0.5,4.4h-12.2l-10.4,7.2l-14,4.6
		l-1.5-2.1l7-10.5l-4-3.9l-2.5-4.9l-5.2-4l-5.6-0.5l-10-7l-72.2-11.9l-1.2-4.9l-6.6-6.1v-5.1l1-4.6l-0.5-2.6l-2.5-2.6l-0.5-4.1
		l6.6-4.6l-4.1-22l-5.6-0.3l-5.1-6.7L161.4,59L161.4,59z"/>
	<path class="st0" d="M136.5,140.4l-1.7,3.3l0.6,2.4l1.1,0.7l-0.3,1l-1.2,0.3l0.3,3.5l1.3,1.3l1-1.1l-1.3-3.4l0.8-2.7l1.9-2.5
		l-1.4-2.4L136.5,140.4L136.5,140.4z"/>
	<path class="st0" d="M142.2,160.4l-1.6,0.6l2.9,3.3l0.7,3.9l2.9,3.1l2.4-0.4v-4l-3-1.8L142.2,160.4L142.2,160.4z"/>
	<path class="st0" d="M227.1,58.3l-8.6,2.3l-5,4.3l0.4,4.8l9.1,2.7l-2,4.6l-6.6-4.1l-1.8,3.4l4.3,3l-0.2,4.8l6.6,1.8l7.9-0.5
		l1.4-2.5l5.9,6.6l4.1-1.4l0.7-4.6l2.9,2.1l0.4-4.6l-3.6-2.3l0.2-14.4l-3.2-2.5l-3.4,4.6L227.1,58.3L227.1,58.3z"/>
	<path class="st0" d="M271.5,113.3l-4.3,5.4l-0.3,6l3.8-2.2h4.6l3.2,3l3-2.5L271.5,113.3L271.5,113.3z"/>
	<path class="st0" d="M207.9,46l0.2,4.1l-8.1,8.4l2,6.8l5.9-1.6l3.4-5l8.6-3.2l7-0.5l-5.4-5.9l-2.7,2.1l-2-0.7l-1.1-2.5l-2.5-2.5
		L207.9,46L207.9,46z"/>
	<path class="st0" d="M218.5,33.9l-1.8,3.2l8.8,3.2l3.2-4.8l1.4,3.2h2.3l4.3-4.8l-5.2-1.4l-2-1.6l-2.7,2.7L218.5,33.9L218.5,33.9z"
		/>
	<path class="st0" d="M288.7,72.2l-5-0.5l-5.9,2.3l-3.2,4.3l0.9,11.9l9.7,0.5l9.3,4.6l6.6,7.5l5-0.2l-1.4,7.1l-4.5,7.5l-5,2.3
		l-3.6-0.7l-1.8-1.6l-2.7,3.6l1.1,3.6l3.9,0.2l4.8-2.3l4.1,10.5l10.2,6.6l7-8.9l-5.9-9.6l3.4-3.9l4.8,8l8.6-7.5l-1.6-3.4l-5.9,1.8
		l-4.1-11.2l3.9-6.4l-7.7-8.2l-4.3,3l-4.1-8.9l-8.6,1.1l-2.3-10.7l-7,4.8l-0.7,5.9h-3.9l0.4-5.2L288.7,72.2L288.7,72.2z"/>
	<path class="st0" d="M298.9,76.3l-1.8,1.8l1.6,2.5l7.5,0.9l-4.8-5L298.9,76.3L298.9,76.3z"/>
	<path class="st0" d="M274.5,48.5l-2.7,0.9l0.4,3.6l4.5,3l0.2,2.3l-1.4,1.4l0.7,4.6l17.4,5.7l4.8,1.6l4.8-4.1l-5.7-4.6l-5.2,1.4
		l-7.2-0.7l-2.7-2.7l-0.7-7.5l-4.5-2.3L274.5,48.5L274.5,48.5z"/>
	<path class="st0" d="M291.7,50.5v2.1l-5,1.1L288,56l5.7,2.3L300,59l4.5,3.2l4.5-2.5l-3.2-3.2h4.1l2.5-2.7l6.1-0.9v-1.4l-3.4-2.3
		l0.4-2.5l9.5,1.6l14-5.5l-5.2-1.6l1.4-1.8h10.9l1.8-1.8l-22-7.8l-5.2-1.8l-5.7,4.1l-6.3-5.2l-3.4-0.2l-0.7,4.3l-4.3-3.9l-5,1.6
		l0.9,2.5l7.5,1.6l-0.4,3.6l4.1,2.5l10-2.5l0.2,3.4l-8.1,3.9l-5-3.9l-4.5,0.5l4.5,6.4l-2.3,1.1l-3.4-3l-2.5,1.6l2.3,4.3h3.9
		l-0.9,4.1l-3.2-0.5l-4.1-4.3L291.7,50.5L291.7,50.5z"/>
	<path class="st0" d="M324.1,184l-10.8,10.3l1.1,2.5l13.2,4.9l1.9-3.3l-1.1-5.4l-4.3,0.5l-2.4-2.7l4-4.1L324.1,184L324.1,184z"/>
	<path class="st0" d="M269.2,66.3l-4.8,3.9l1.1,4.8h2.9l1.4-2.5l2,2.1l2-0.2l5.4-4.6L269.2,66.3L269.2,66.3z"/>
	<path class="st0" d="M279.9,32.5l0.2,3.6h6.1l1.6,1.4l-0.2,1.6l-5.4,0.7L286,45l5.2,0.9l7.2-3.2L288,27l-3.2,2.1l0.2,2.7l-3.6-1.4
		L279.9,32.5L279.9,32.5z"/>
	<path class="st0" d="M273.3,37.7l1.8,2.1l-1.6,2.7l1.1,3l5-2.7v-2.1l-2.9-3.4L273.3,37.7L273.3,37.7z"/>
	<path class="st0" d="M233.9,40.3l-7,3v2.3l9.1,3.4l-2,2.3l1.4,3l5.7-2.5h4.8l2.3,3.6l3.9-3.9l-0.9-3.7l-3.2,1.1l-0.4-4.6l1.6-2.7
		h-1.6l-2.5,1.6l-1.1,0.9l0.7,3.2l-1.8,1.4l-2.7-0.2l-0.7-4.1L233.9,40.3L233.9,40.3z"/>
	<path class="st0" d="M265.8,50.1l-5,0.7l-2.9,2.7l5.4,0.2l-1.6,4.1l1.1,1.8l1.6-0.2l3.9-6.2L265.8,50.1L265.8,50.1z"/>
	<path class="st0" d="M254.7,68.3l-2.9-1.4l-1.6,2.1l3.2,5l0.2,4.8l6.8-4.1v-5.9l2.5-2.5l-2.5-1.8h-4.1L254.7,68.3L254.7,68.3z"/>
</g>
<g id="us">
	<path class="st0" d="M94.9,55.1l-8.6,2l1.8,9.7l9.3,2.5l0.5,2l-13.9,4.3l-7.8,12.9l2.8,13.7l4.5,3l3.5-3.3l1,2l-4.3,5.1l-16.6,7.6
		l-10.6,2.5l-0.3,3.8l24.4-7.1l10.1-2.8l9.3-11.4l10.3-6.9l-5.3,8.9l5.8,0.8l9.8-4.3l1.8,7.1l6.8,1.5l7.1,6.9l0.5,5.1l-1,1.3
		l1.3,4.8h1.8l0.3-8.1h2l0.5,20.1l5-4.3l-3.5-20.8H138l-5.8-7.4l28.5-48.3l-28.2-22.1l-31.5,6.1l-1.3,9.7l6.8,4.1l-2.5,6.6
		L94.9,55.1L94.9,55.1z"/>
	<path class="st0" d="M151.7,171l-1,4.1l-3.6-2.3h-1.8l-1,4.4l-12.5,27.9l3.3,24.3l4.1,2.1l0.8,6.7h8.4l8.1,6.1l16,1.5l1.8,8.2
		l2.5,1.8l3.6-3.6l2.8,1.3l2.5,11.8l4.3,2.8l3.6-6.7l10.9-7.9l7.1,3.3l6.1,0.5l0.3-3.8l12.7,0.3l2.5,2.8l0.5,6.4l-1.5,3.6l1.8,6.1
		h3.8l3.8-5.9l-1.5-2.8l-1.5-6.1l2.3-6.9l10.4-9l7.9-2.3l-1-7.4l10.9-11.8l10.9-1.8l-1.8-6.1l10.7-6.1v-8.2l-1-0.5l-3.8,1.3l-0.5,5
		l-12.7,0.2l-9.9,6.6l-15.6,5.1l-2.5-3.1l7.1-10.7l-3.5-3.3l-2.4-4.5l-4.9-4l-5.4-0.4l-10.1-6.9L151.7,171L151.7,171z"/>
	<path class="st0" d="M22.1,274.5l-1,5.6l1,2.1l3.2-1l1.7-2.8l-3.5-3.2L22.1,274.5L22.1,274.5z"/>
	<path class="st0" d="M70.5,63.8l3.5,6.6l2.3-0.5v-2.3L70.5,63.8L70.5,63.8z"/>
	<path class="st0" d="M50.5,121.9l-0.2,3.1l2.2-0.5v-1.4L50.5,121.9L50.5,121.9z"/>
	<path class="st0" d="M47.1,123.3l-4.4,2.2l0.7,2.4l1.7-1.4l3.4-1.5L47.1,123.3L47.1,123.3z"/>
	<path class="st0" d="M28.8,126.2l-3.1-0.7l-0.5,1.4l0.3,2.6L28.8,126.2L28.8,126.2z"/>
	<path class="st0" d="M22.3,126l-2.9-1.2l-1,1.9l1.9,1.9L22.3,126L22.3,126z"/>
	<path class="st0" d="M12.3,123.3l-1.4-1.9l-1.4,0.5v2.6l1.5,1L12.3,123.3L12.3,123.3z"/>
	<path class="st0" d="M10,263.3l-0.1,2.4l2.1,1.4l1.2-1.1L10,263.3L10,263.3z"/>
	<path class="st0" d="M15.4,266.8l-1.9,1.4l1.7,2.1l1.9-1.7L15.4,266.8L15.4,266.8z"/>
	<path class="st0" d="M19.3,270.1l-1.7,2.2l0.6,1.4l2.4-1.1L19.3,270.1L19.3,270.1z"/>
</g>
<g id="gb">
	<path class="st0" d="M447.6,174.2l-3.4,0.4l-0.2,3l2.2,1.5l2.4-0.6l0.9-1.7L447.6,174.2L447.6,174.2z"/>
	<path class="st0" d="M455.4,161.5l-1.9,2.8l0.7,1.1h4.3v1.9l-1.1,1.5l0.7,4l2.4,4.7l1.9,4.3l3,1.1l1.3,2.3l-0.2,2.1l-1.9,1.1
		l-0.2,0.9l1.3,0.8l-1.1,1.5l-2.6,1.1l-5.1-0.6l-7.9,3.6l-2.6-1.3l7.5-4.3l-0.9-0.6l-3.9-0.4l2.4-3.6l0.4-3l3.2-0.4l-0.6-5.9
		l-3.7-0.2l-1.1-1.3l0.2-4.3l-2.2,0.2l2.2-7.5l4.1-3L455.4,161.5L455.4,161.5z"/>
</g>
<path id="mx" class="st0" d="M140.2,239.5l4.9,15.5l-2.3,1.3l0.3,3.1l4.3,3.3v6.2l5.4,5.1l-2.3-15.2l-3.1-10l0.8-6.9l2.6,0.3l1,2.3
	l-1,5.9l13.3,26v9.3l10.7,12.6l11.7,5.4l4.9-2.8l6.9,5.7l4.1-4.1l-1.8-4.6l5.9-1.8l1.8,1l1.8-1.8h2.8l5.1-9l-2.6-2.3l-10,2.3
	l-2.3,6.7l-5.9,1l-6.9-2.8l-3.1-9.8l2.3-12.3l-4.7-3l-2.3-11.8l-1.9-0.8l-3.5,3.5l-4-2.1l-1.6-7.9l-15.7-1.6l-8.1-6.1L140.2,239.5
	L140.2,239.5z"/>
<path id="bz" class="st0" d="M208.7,297.7l-0.1,3.7h0.9l2.9-5.5h-2L208.7,297.7L208.7,297.7z"/>
<path id="gt" class="st0" d="M198.8,307l6.1,4.4l6.1-7.6l-1-1.6l-2.1-0.1v-4.4l-1.6-0.9l-4.7,1.4l1.8,4.2L198.8,307L198.8,307z"/>
<path id="ma" class="st0" d="M457.6,246.5h-11.8l-2.3,5.1l-5.3,2.6l-4.4,11.9l-8.6,5.1l-12,19.8l11.8-0.2l0.5-5.8h3V277h10.4
	l0.2-10.3l9.9-2.3l4.2-6.8l6.5-0.2L457.6,246.5L457.6,246.5z"/>
<path id="mr" class="st0" d="M413.3,291.8l2.2,2.9l-0.5,12.6l3.2-2.3l2.3-0.5l3.2,1.2l3.7,5.1l3.5-2.3l16.9-0.2l-4.2-28.2l4.5,0
	l-8.3-6.4l0,4.1l-10.5,0l-0.1,7.9l-3,0l-0.4,5.8L413.3,291.8L413.3,291.8z"/>
<g id="ee">
	<path class="st0" d="M528.6,156l-5.7-0.2l-3.6,2.2l-0.1,1.6l2.3,2.2l7.3,1.2L528.6,156L528.6,156z"/>
	<path class="st0" d="M517.4,160.1l-1.6-0.1l-0.9,0.9l0.7,1l1.6,0.1l0.8-1.2L517.4,160.1L517.4,160.1z"/>
</g>
<g id="sn">
	<path class="st0" d="M418.7,305.8l-4,2.9l-0.9,1.6l-0.3,1.6l1.5,1.1l4.9-0.1l3.2-0.9l0.4,1.6l-0.3,2.1l3,1.5l0.6,0.7l4,0.1l0.1-1.8
		l-3.7-4.4l-4.1-5.5l-2.5-1.1L418.7,305.8L418.7,305.8z"/>
	<path class="st0" d="M415.3,315.9l1.3,3.1l0.7-1.9l8.6,0.9l-3.7-1.9L415.3,315.9L415.3,315.9z"/>
</g>
<path id="gm" class="st0" d="M415.4,314l-0.1,1.1l7.1-0.1l0.4-1.1l-0.2-1.1l-2,0.8L415.4,314L415.4,314z"/>
<path id="gw" class="st0" d="M417.1,320.3l1.4,2.8l4-3.5l0-1.1l-4.7-0.7L417.1,320.3L417.1,320.3z"/>
<path id="gn" class="st0" d="M419,323.8l3.1,4.8l4-3.5l4.1-0.2l3.5,4.6l2.9,1.9l1.1-2.1l1-0.6l-0.1-4.7l-2-5.6l-6,0.7l-7.4-0.6
	l0,1.9L419,323.8L419,323.8z"/>
<path id="sl" class="st0" d="M422.5,329.1l5.8,5.6l4.1-5l-2.6-4l-3.5,0.4L422.5,329.1L422.5,329.1z"/>
<path id="lr" class="st0" d="M428.9,335.3l11.2,7.5l-0.3-5.7l-3.4-4l-3.3-2.9L428.9,335.3L428.9,335.3z"/>
<path id="ci" class="st0" d="M441.1,343l4.4-3.1l5.4-0.9l5.5,1.2l-2.8-4.3l-0.8-2.6l0.8-7.7l-5,0.2l-2.2-2.1l-4.7,0.1l-2.2,0.4
	l0.2,5.2l-1.2,0.5l-1.4,2.6l3.7,4.3L441.1,343L441.1,343z"/>
<path id="ml" class="st0" d="M428.2,311.4l3.1-2.2l17.5-0.1l-4-28.1l4.6-0.1l22.3,17l3,0.4l-1.1,9.5l-14,1.3l-10.8,8.1l-2,5.5
	l-7.5,0.3l-1.9-5.5l-5.8,0.4l0.2-1.8L428.2,311.4L428.2,311.4z"/>
<path id="bf" class="st0" d="M460,309.8l3.7-0.3l6.1,8.6l-5.7,4.3l-4.1-1.1l-5.5,0.1l-0.9,3.2l-4.6,0.2l-1.3-1.7l1.6-5.2L460,309.8
	L460,309.8z"/>
<path id="ne" class="st0" d="M470.5,317.7l2.6-0.1l2.3-3.5l3.9-0.7l4.2,2.6l9,0.3l6.9-2.8l2.6-2.2l0.2-2.9l4.8-4.9l1.3-10.8
	l-3.2-6.7l-8.1-2l-18.8,14.7l-2.7-0.3l-1.1,10.2l-9.6,1L470.5,317.7L470.5,317.7z"/>
<path id="gh" class="st0" d="M453.6,333.1l1.1,2.7l3,4.7l1.7-0.1l4.5-2.6l-0.3-14.6l-3.5-1l-4.9,0.1L453.6,333.1L453.6,333.1z"/>
<path id="tg" class="st0" d="M464.7,337.4l2.7-1.6l-0.1-10.6l-1.8-2.9l-1.1,1L464.7,337.4L464.7,337.4z"/>
<path id="bj" class="st0" d="M468.3,335.6h2.2l0.1-6.1l2.7-4l-0.1-6.9l-2.5-0.1l-4.3,3.3l1.8,3.4L468.3,335.6L468.3,335.6z"/>
<path id="ng" class="st0" d="M471.2,335.5l4,0.2l4.8,5.4l2.3,0.6l1.8-0.9l2.8-0.4l0.9-3.9l3.8-2.5l4.1-0.2l7.6-13.9l-0.1-3.1
	l-3.5-2.7l-7,3.1l-9.3-0.1l-4.5-2.8l-3.2,0.7l-1.7,2.9l-0.1,8.1l-2.7,3.8L471.2,335.5L471.2,335.5z"/>
<path id="td" class="st0" d="M503.1,311.6l0.1-3l4.8-4.7l1.3-11.6l-3.2-6.2l2.3-1.2l21.9,11.4l-0.1,11.2l-3.9,3.3v5.8l2.5,4.9h-4.5
	l-7.4,7.3l-0.2,2.2l-5.4-0.1l-0.1,1l-3.1-0.4l-2.1-4l-1.6-0.8l0.2-1.2l2-1.5v-7.2l-2.8-0.4l-3.3-2.5L503.1,311.6L503.1,311.6
	L503.1,311.6z"/>
<path id="sd" class="st0" d="M531,307.9l0.2-12.1l2.5,0.1l-0.3-6.7l26.3,0.2l3.8-3.8l8.1,13l-4.5,5.2v8l-7,15.1l-2.4,1.1l0.8,4.2h3
	l4.1,5.9l-3.3,0.4l-0.8,1.5l-0.1,2.2l-9.8-0.2l-1-1.5l-6.9-0.4l-12.6-12.9l1.3-0.8l0.3-3l-3-1.8l-2.7-5.4l0.2-5L531,307.9L531,307.9
	z"/>
<path id="cm" class="st0" d="M487.8,340.5l3.3,3l-0.2,4.7l18-0.4l1.5-1.7l-5.2-5.6l-0.8-2l3.3-6.2l-2.2-4.1l-1.9-1v-2.1l2.2-1.4
	l0.1-6.5l-1.7-0.2l0,3.4l-7.6,14.1l-4.6,0.2l-3.2,2.2L487.8,340.5L487.8,340.5z"/>
<path id="er" class="st0" d="M568.4,310.3l-0.3-6l4-4.7l1.1,0.8l2,6.7l9.6,7.1l-1.7,2.1l-7-6L568.4,310.3L568.4,310.3z"/>
<path id="dj" class="st0" d="M583.4,317.3l-0.6,3.4l4-0.1l0.1-5l-1.5-0.9L583.4,317.3L583.4,317.3z"/>
<path id="et" class="st0" d="M561,327.7l7.4-16.5l7.4,0l6.5,5.7l-0.5,4.7h5.1l0.5,2.8l8.2,4.9l5.1,0.3l-9.6,10.3l-13.2,4.1h-3.3
	l-5.8-5l-2.3-1l-4.5-6.6l-3,0l-0.3-3L561,327.7L561,327.7z"/>
<g id="so">
	<path class="st0" d="M604.4,319.8l4.5-1.7l1.6,0.9l-0.2,4l-4.1,11.7l-22.3,23.9l-2.6-1.8l-0.2-10.1l3.3-3.9l7.1-2.2l10.4-11
		l2.7-2.4l0.8-3.6L604.4,319.8L604.4,319.8z"/>
	<path class="st0" d="M587.8,320.8l4.2,2.8l1.2-0.1l10.3-3.6l1.2,3.8l-0.8,3.2l-2.2,1.8l-5.6-0.4l-8-4.9L587.8,320.8L587.8,320.8z"
		/>
</g>
<path id="ga" class="st0" d="M496.5,349l-0.1,2.5l-5.8-0.1l-3.5,6.8l8.3,9.1l2.1-1.7l-0.1-1.8l-1.4-0.7v-1.2l3.2-2l2.8,2.1l3.1,0.1
	l-0.1-10.7l-4.9-0.2l-0.1-2.2L496.5,349L496.5,349z"/>
<path id="gq" class="st0" d="M491,349.1l-0.1,1.4l4.6,0.2l-0.1-1.6L491,349.1L491,349.1z"/>
<path id="cg" class="st0" d="M501.3,348.9l-0.1,1.5l4.9,0.1l0.2,12.7l-4.5-0.1l-2.6-2l-2,1.1l-0.1,0.6l1,0.5l0.3,2.6l-2.8,2.4
	l0.6,1.2l3.1-2.4h1.5l0.5,1.4l1.9,0.8l6.2-5.3l-0.1-3.9l1.3-3.1l4-3l1.1-10l-2.8,0l-3.3,4.5L501.3,348.9L501.3,348.9z"/>
<path id="nc" class="st0" d="M925.7,438.7l-0.4,1.8l4.7,6.6l2.5,1.1l0.4-2.6L925.7,438.7L925.7,438.7z"/>
<g id="my">
	<path class="st0" d="M748.1,331.5l2.1,4.6l0.5,6l2.7,4.3l6.6,4l2.5,0.2l-0.5-4.1l-2.2-5.3l-3.2-6.8l-0.3,1.2l-3.8-0.2l-2.8-4
		L748.1,331.5L748.1,331.5z"/>
	<path class="st0" d="M780.2,349.3l3.1,3.6l11.8-4.1l2.3-9l5.3-0.4l4.8-3.5l-6.3-4.6l-1.4-2.5l-3.1,5.7l1.1,3.3l-1.9,2.7l-3.5-0.9
		l-8.6,6.3l0.2,3.6L780.2,349.3L780.2,349.3z"/>
</g>
<path id="bn" class="st0" d="M796.2,335.3l-2.9,3.6l2.4,0.8l1.4-1.9L796.2,335.3L796.2,335.3z"/>
<path id="fj" class="st0" d="M968.6,430.4l-1.3,1.7l-0.1,1.9l1.5,1.5L968.6,430.4L968.6,430.4z"/>
<g id="ph">
	<path class="st0" d="M808,288.1l-2.6,1.9l-0.3,5.9l4.1,8l1.4,1.1l1.8-1.2l3,0.5l0.6,2.7l2.2,0.2l1.1-1.5l-1.4-1.9l-1.7-1.6
		l-3.5-0.4l-1.9-3.1l2.1-3.2l0.2-2.8l-1.5-3.6L808,288.1L808,288.1z"/>
	<path class="st0" d="M806,313.2l-0.9,1.7l-0.5,2.1l-4.9,6.2l0.3,1.3l2.1-0.3l6.3-7.1L806,313.2L806,313.2z"/>
	<path class="st0" d="M813.9,310.8l-0.1,5.1l1.9,1.9l0.7,3.6l1.9,0.4l0.9-2.3l-1.5-1.1l-0.4-6.4L813.9,310.8L813.9,310.8z"/>
	<path class="st0" d="M819.2,312.8l-0.1,4.5l1.1,1.8l1.9-2.2l-0.5-3.9L819.2,312.8L819.2,312.8z"/>
	<path class="st0" d="M820.3,308.8l1.9,2.5l0.9,2.4h1.7l-0.3-4l-1.9-1.3L820.3,308.8L820.3,308.8z"/>
	<path class="st0" d="M823.9,318.1l0.4,3l-3.4,2.8l-2.8,0.3l-3,3.2l0.1,1.5l2.8-0.9l2-1.3l1.7,4.2l2.9,2.1l1.2-0.4l1.1-1.3l-2.3-2.4
		l1.4-1.1l1.6,1.3l1.1-1.8l-1.1-2.2l-0.2-4.8L823.9,318.1L823.9,318.1z"/>
	<path class="st0" d="M809.4,305.7l0.8,2.8l1.4,0.9l1-1.3l-1.6-2.2L809.4,305.7L809.4,305.7z"/>
</g>
<path id="ag" class="st0" d="M282.3,298.7l-1.5,0.6l0.5,1.4l1.8-1.2l-0.4-0.4L282.3,298.7L282.3,298.7z"/>
<path id="gp" class="st0" d="M284.8,300.2l-0.9,1.9l1.1,1.5l1.3-1.2L284.8,300.2L284.8,300.2z"/>
<path id="dm" class="st0" d="M287.9,305.5l-1.1,1l0.8,1.6l1.5-0.4L287.9,305.5L287.9,305.5z"/>
<path id="mq" class="st0" d="M287.8,309.6l-0.7,1.5l1.2,1.3l1.5-0.8L287.8,309.6L287.8,309.6z"/>
<path id="lc" class="st0" d="M287.9,313.5l-1.3,0.9l1,1.8l1.6-0.9L287.9,313.5L287.9,313.5z"/>
<path id="gd" class="st0" d="M286.3,317l-1.2,1.2l0.4,0.7h1.4l0.4-1.2L286.3,317L286.3,317z"/>
<path id="tt" class="st0" d="M288.1,320.6l-1.1,1l-1.2,0.2v1.5l2.2,2l0.9-1.5l0.5-1.6l-0.2-1.4L288.1,320.6L288.1,320.6z"/>
<path id="pr" class="st0" d="M276.6,296.3l-2.7-0.9l-2.2,1.4l1.1,1.3l3.7,0.5L276.6,296.3L276.6,296.3z"/>
<path id="do" class="st0" d="M268.5,295.7l-5.4-3.5l-2.6-0.9l-0.9,6.1l0.9,1.7l1.2-1.4l3.4-0.9l3,0.6L268.5,295.7L268.5,295.7z"/>
<path id="ht" class="st0" d="M256,290.5l3.5,0.4l-0.4,4.3l-0.3,2.3l-4.1-0.2l-0.7,1.1l-1.3-0.1l-0.4-2.4l4.3-0.4l-0.3-2.5l-2-0.8
	L256,290.5L256,290.5z"/>
<path id="cu" class="st0" d="M225.4,281.9v1.3l5.4,0.1l2.6-1.5l0.4,1.1l5.3,1.3l4.7,4.3l-1.1,1.5l0.2,1.7l4,1l4-1.8l1.8-1.8
	l-2.6-1.3l-13.2-7.8l-4.6-0.5L225.4,281.9L225.4,281.9z"/>
<g id="bs">
	<path class="st0" d="M244.5,273.9l-1.3-0.4l-0.1,2.5l1.6,1.6l1.1-1.6L244.5,273.9L244.5,273.9z"/>
	<path class="st0" d="M247.1,277.8l-1.8,1l1.7,2.4l0.9-1.2L247.1,277.8L247.1,277.8z"/>
	<path class="st0" d="M252.8,279.6l-1.9-0.1l0.2,1.2l1.4,2l1.2-1.3L252.8,279.6L252.8,279.6z"/>
	<path class="st0" d="M251.9,277.2l-3.1-1.3l-0.6-3.1l1.2-0.5l1.2,2.4l1.2,0.9L251.9,277.2L251.9,277.2z"/>
	<path class="st0" d="M249,271l-1.6-0.4l-0.3-2l-1.7-0.6l1.1-1.1l2,0.7l1.5,0.9L249,271L249,271z"/>
</g>
<path id="jm" class="st0" d="M243.8,294.8l-3.6,0.9v1l2.1,1.2h2.2l1.4-1.6L243.8,294.8L243.8,294.8z"/>
<path id="kz" class="st0" d="M588.8,201.9l4.2-1.8l4.7-0.2l0.3,7.1h-2.7l-2.1,3.4l2.7,4.5l4,2.3l0.4,2.6l1.5-0.5l1.4-1.6l2.3,0.5
	l1.1,2.3h2.9v-2.9l-1.8-5.2l-0.8-4.2l5.2-2.3l6.9,1.1l4.4,4.4l9.8-1l5.5,7.8l6.4,0.3l1.8-2.9l2.3-0.5l0.3-3.2l3.4-0.2l1.8,2.1
	l1.8-4.2l15.3,2.1l2.6-3.4l-4.4-5.4l5.8-12.7l4.7,0.3l3.2-7.8l-6.4-0.7l-3.7-3.6l-10.2,1.2L650,167.2l-4.6,4.1l-14.1-6.4l-17.2,8.4
	l-0.5,6l4,4.7l-7.9,4.4l-10.2-0.2l-2.1-3.1l-8-0.4l-7.6,4.9l-0.2,6.7L588.8,201.9L588.8,201.9z"/>
<path id="tm" class="st0" d="M606.3,221.3l-0.6,2.7h-4.2v3.6l4.6,3l-1.4,4.1v1.9l1.9,0.3l2.5-3.3l5.7-1.3l12.1,4.6l0.2,3.3l6.8,0.6
	l7.5-7.9l-0.9-2.5l-5-1.1l-14.1-9.2l-0.6-3.3h-5.3l-2.4,4.4h-2.4L606.3,221.3L606.3,221.3z"/>
<path id="uz" class="st0" d="M642.1,233l3.1,0.2v-5.4l-3-1.7l5-6.3h2l2,2.4l5.3-2.1l-7.4-2.5l-0.3-1.5l-1.8,0.4l-1.7,3l-7.4-0.2
	l-5.5-7.7l-9.6,0.9l-4.6-4.5l-6.3-1.1l-4.6,1.9l2.7,8.9l0,3l1.9,0l2.4-4.5l6.3,0.1l0.9,3.5l13.6,9l5.2,1.2L642.1,233L642.1,233z"/>
<path id="tj" class="st0" d="M643.4,225.6l4.2-5.2h1.6l0.6,1.2l-1.9,1.4v1.2l1.3,0.9l6.1,0.4l2-0.9l0.9,0.2l0.6,2l3.6,0.4l1.8,3.9
	l-0.6,1.2l-0.7,0.1l-0.7-1.5l-1.6-0.1l-2.7,0.4l-0.2,2.6l-2.7-0.2l0.1-3.2l-2-2l-3,2.5l0.1,1.7l-2.7,0.9h-1.6l0.1-5.7L643.4,225.6
	L643.4,225.6z"/>
<path id="kg" class="st0" d="M650.2,212.7l-0.3,2.6l0.3,1.6l8.9,3l-7.8,3.1l-0.9-0.7l-1.7,1.1l0.1,0.6l0.9,0.4l5.5,0.1l2.8-0.8
	l3.6-4.5l4.5,0.8l5.4-7.5l-14.4-2l-2,4.8l-2.5-2.7L650.2,212.7L650.2,212.7z"/>
<path id="af" class="st0" d="M627,241.2l1.6,12.7l4,0.9l0.4,2.3l-2.9,2.4l5.4,4.4l10.5-3.8l0.8-4.5l6.6-4.1l2.5-9.6l1.9-2l-2-3.4
	l6.4-4l-0.8-1.1l-3,0.2l-0.3,2.7l-4,0l-0.1-3.6l-1.3-1.5l-2.1,2l0.1,1.8l-3.2,1.2l-6-0.4l-7.8,8.1L627,241.2L627,241.2z"/>
<path id="pk" class="st0" d="M636.2,264.5l2.7,3.9l-0.3,2l-3.5,1.4l-0.3,3.3h4l1.4-1.1h7.7l6.9,6.1l0.9-2.9h5.2l0.1-3.7l-5.3-5.1
	l1.1-2.8l5.4-0.4l7.3-15.3l-4-3.2l-1.5-5.3l9.8-0.9l-5.8-8.3l-3.1-0.8l-1.3,1.5l-0.9,0.1l-5.8,3.7l1.9,3.2l-2.1,2.3l-2.7,9.8
	l-6.6,4.2l-0.9,4.6L636.2,264.5L636.2,264.5z"/>
<path id="np" class="st0" d="M685.3,257l0.5,4.4l8.3,3.7l13.2,1l-0.5-3.2l-8.8-2.4l-7.5-4.5L685.3,257L685.3,257z"/>
<path id="bt" class="st0" d="M710,262.7l1.6,2.2l5.4,0l-0.5-3L710,262.7L710,262.7z"/>
<path id="bd" class="st0" d="M710.2,267.8l-1.3,2.4l3.5,6.6l0.1,5.1l0.6,1.4l4.1,0.1l2.3-2.2l1.7,1l0.3,3.1l1.3-0.8l0.1-4l-1.1-0.1
	L721,277l-2.8-0.1l-0.7-1.9l1.7-2.3l0-1.1h-5L710.2,267.8L710.2,267.8z"/>
<path id="kh" class="st0" d="M756,315.1l4.2,4.5l7.8-5.8l0.7-9.1l-4,2.8l-2.1-1.2l-2.8-0.4l-1.6-1.1l-0.8,0l-2.1,3.4l0.3,1.6
	l2.1,1.2l-0.3,3.2L756,315.1L756,315.1z"/>
<path id="la" class="st0" d="M750.9,277.8l-2.5,1.3l-2.1,6l3.4,4.4l-0.6,4.8l0.6,0.2l5.7-2.8l7.7,8.6l-0.2,5.4l1.7,0.9l4.1-3.3
	l-0.3-2.6l-11.9-11.3l0.1-1.7l1.5-1l-1-2.9l-4.9-0.8L750.9,277.8L750.9,277.8z"/>
<path id="vn" class="st0" d="M760.7,320.2l1.2,1.9l0.2,2.2l3.2,0.3l3.9-5.2l3.7-1l1.9-5.3l-0.9-8.5l-3.8-5.2l-4-3.2l-5.1-8.7
	l3.6-6.1l-5.2-6l-4.2-0.2l-3.7,2l1.1,4.8l5,0.9l1.3,3.7l-1.8,1.1l0.1,0.9l11.7,11.4l0.5,3.4l-0.7,10.6L760.7,320.2L760.7,320.2z"/>
<path id="ge" class="st0" d="M567.1,217.8l3.3,4.4l4.2,1.9l2.6,0l4.4-1.2l1.1-1.7l-13-4.9L567.1,217.8L567.1,217.8z"/>
<path id="am" class="st0" d="M581.7,223.7l4.9,6.4l-1.4,1.7l-3.5-0.6l-4.3-3.9l0.2-2.5L581.7,223.7L581.7,223.7z"/>
<path id="az" class="st0" d="M583.4,221.4l-1,1.8l4.8,6.3l1.7-0.5l2.8,2.9l1.2-5.1l3,0.5l-0.1-1.5l-4.9-4.3l-0.9,2.5L583.4,221.4
	L583.4,221.4z"/>
<path id="ir" class="st0" d="M581.6,231.9l-1.2,1.3l0.1,2.1l1.6,2.2l5.5,6l-0.8,2.4h-1l-0.5,2.4l3.1,4l2.9,0.2l5.7,8l3.2,0.2
	l2.5,1.8l0.1,3.6l9.9,5.8h3.7l2.3-1.9l2.9-0.1l1.7,3.9l10.7,1.5l0.3-3.9l3.6-1.3l0.2-1.4l-2.8-3.9l-6.3-5.1l3.3-3l-0.2-1.3l-4.1-0.6
	l-1.8-14l-0.2-3.2l-11.2-4.3l-5,1.1l-2.8,3.4l-2.5-0.2l-0.7,0.6l-5.5-0.4l-6.9-5.1l-2.6-2.8l-1.2,0.3l-2.1,2.4L581.6,231.9
	L581.6,231.9z"/>
<path id="om" class="st0" d="M610.9,296.1l7.5-4.4l1.3-6.4l-1.7-0.9l0.7-6.8l1.4-0.8l1.5,2.4l9.2,4.8v2.7L619.9,303l-5.1,0.2
	L610.9,296.1L610.9,296.1z"/>
<path id="ae" class="st0" d="M606.5,279.9l0.9,3.6l10.1,0.9l0.7-7.3l1.9-1.1l0.5-2.7l-3.2,0.9l-3.5,5.3L606.5,279.9L606.5,279.9z"/>
<path id="qa" class="st0" d="M605,273.8l-0.5,4.1l1.6,1.2l1.4-0.1l0.5-5.2l-1.2-0.9L605,273.8L605,273.8z"/>
<path id="kw" class="st0" d="M595.5,261.7l-2.3-1.2l-1.6,1.6l0.2,3.2l3.7,1.4L595.5,261.7L595.5,261.7z"/>
<path id="sa" class="st0" d="M596.2,267.9l7.2,10l2.3,1.8l1,4.5l11,0.9l1.2,0.7l-1.2,5.5l-7.2,4.3l-10.6,3.2l-5.6,5.5l-6.7-3.9
	l-4.1,3.6l-5.7-9.2l-3.9-1.8l-1.4-2.1v-4.6L558.4,269l-0.5-3h4.1l4.9-4.3l0.2-2.1l-1.4-1.4l2.8-2.3l6,0.4l10.2,8.5l6-0.3l0.4,1.5
	L596.2,267.9L596.2,267.9z"/>
<path id="sy" class="st0" d="M558.1,243.3l-0.4,2.6l2.9,1.2l-0.1,7.2l2.9-0.1l2.9-2.2l1.1-0.2l6.5-5.2l1.3-7.5l-13.1,1.3l-1.4,3
	L558.1,243.3L558.1,243.3z"/>
<path id="iq" class="st0" d="M576.1,239.1l-1.6,7.9l-6.6,5.5l0.4,2.6l6.4,0.4l10.3,8.4l5.7-0.2l0.2-1.9l2.1-2.3l2.9,1.7l0.4-0.4
	l-5.7-7.6l-2.7-0.2l-3.6-4.6l0.7-3.4l1.1-0.1l0.4-1.5l-4.9-5.1L576.1,239.1L576.1,239.1z"/>
<path id="jo" class="st0" d="M560.4,255.2l-2.5,8.8l-0.1,1.3h4l4.4-3.9l0.1-1.5l-1.8-1.8l3.2-2.7l-0.5-2.5l-0.9,0.2l-2.7,1.9
	L560.4,255.2L560.4,255.2z"/>
<path id="lb" class="st0" d="M557.6,246.7l0.1,2l-0.8,3l2.9,0.2l0.2-4.3L557.6,246.7L557.6,246.7z"/>
<path id="il" class="st0" d="M556.7,252.4l-1.6,5.1l2.1,6.2l2.4-9v-1.9L556.7,252.4L556.7,252.4z"/>
<path id="cy" class="st0" d="M554.6,244l1.3,0.9l-3.9,3.7l-1.9-0.1l-1.4-1l0.2-1.8l2.8-0.2L554.6,244L554.6,244z"/>
<path id="no" class="st0" d="M526.2,113.6l2.1-1.5l-0.2-1.7l-1.3-0.8l0.2-2.1h1.1v-1.1l-4.9-1.3l-7.3,0.8l-0.7,3.2l-1.7-0.6
	l-1.1-1.9l-3.6,0.2l-0.4,3.6l-1.7,0.8l-0.9-1.9l-7.5,6l1.5,1.7l-2.8,1.3l-6.4,12.6l-2.2,1.5l0.2,1.1l2.2,1.1l-0.6,2.5l-3.7-0.2
	l-1.1-1.3l-2.4,2.8l-1.5,1.1l-0.4,2.6l-1.3,0.8l-3.4,0.8l-1.7,5.3l1.1,8.7l1.3,4l1.5,1.5l3.4-0.2l4.9-4.7l1.9-3.2l0.6,4.7l3.2-5.7
	l0.2-15.9l2.6-1.6l0.8-8.8l7.9-11.3l3.7-1.3l1.7-2.1l5.6,1.3l2.8,1.7l0.9-4.7l4.7-2.8L526.2,113.6L526.2,113.6z"/>
<g id="se">
	<path class="st0" d="M508.1,116.1l2,1.8h3.7l2.1,4l0.6,6.8l-5.1,3.6v3.6l-3.6,4.9l-2.1,0.2l-2.8,4.7l0.2,4.5l4.9,3.6l-0.4,2.1
		l-1.9,2.8l-2.8,2.5l0.2,8.1l-4.3,1.5l-1.5,3.2h-2.1l-1.1-5.7l-4.7-7.2l3.9-6.4l0.3-15.9l2.7-1.5l0.6-9.1l7.6-10.8L508.1,116.1
		L508.1,116.1z"/>
	<path class="st0" d="M508.9,162.7l-2.2,1.7l1.1,2.5l1.9-1.9L508.9,162.7L508.9,162.7z"/>
</g>
<path id="fi" class="st0" d="M517.4,128.7l2.1,0.9l1.3,2.5l-1.3,1.7l-6.6,7.2l-1.1,3.8l1.5,5.5l5.1,3.8l6.7-3.2l5.4-0.8l5.1-8.1
	l-3.7-8.9l-3.6-8.5l0.6-5.5l-2.2-0.4l-0.6-4l-3-4.9l-3.3,2.3l-1.3,5.4l-3.6-2.1l-4.9-1.2l-1.1,1.3l1.9,1.7l3.5-0.1l2.8,4.5
	L517.4,128.7L517.4,128.7z"/>
<path id="lv" class="st0" d="M528.9,163.9l-7-1.1l0.2,3.9l6.5,4l2.7-0.8l-0.2-3L528.9,163.9L528.9,163.9z"/>
<path id="lt" class="st0" d="M521.5,167.3l-2.2-0.1l-3,2.9h-2.6l0.2,3.6l-1.5,2.8l5.5,0.1l1.6-0.2l1.6,1.9l3.6-0.2l3.5-4.4l-0.2-2.6
	L521.5,167.3L521.5,167.3z"/>
<path id="by" class="st0" d="M521.3,179.1l1.5,2.5l-0.6,2l0.1,1.6l0.6,1.9l3.2-1.8l3.9,0.1l2.8,1.1h7l2-4.9l1.2-1.8v-1.2l-4.4-6.2
	l-3.9-1.5l-3.2-0.4l-2.8,0.9l0.1,2.8l-3.8,4.8L521.3,179.1L521.3,179.1z"/>
<path id="pl" class="st0" d="M522.2,187.8l0.9,1.6l0.2,1.7l-0.7,1.6l-1.6,3.1l-1.4,0.6l-1.8-0.8l-1.1,0.1l-2.6,1l-3-0.9l-4.8-3.4
	l-4.7-2.5l-1.9-2.9l-0.4-6.8l3.7-3.2l4.8-1.6l1.8-0.2l-0.7,1.4l0.5,0.6l8.1,0.2l1.7-0.1l2.9,4.4l-0.7,1.8l0.3,2.1L522.2,187.8
	L522.2,187.8z"/>
<path id="nl" class="st0" d="M479.9,181.1l-4.6,2.3l1,0.9l0.1,2.3l-1-0.2l-1.1-1.7l-2.6,4.1l4,0.8l1.5,1.6l0.8,0l0.5-3.5l2.5-1.1
	L479.9,181.1L479.9,181.1z"/>
<path id="be" class="st0" d="M471.2,189.6l-0.7,1.6l7,4.6l2,0.5l0.1-2.2l-1.8-2h-1.1l-1.5-1.7L471.2,189.6L471.2,189.6z"/>
<path id="de" class="st0" d="M481,180.7l3.6-0.6v-2.6l3.1-0.5l1.7,1.7l1.8,0.2l2.8-1.2l2.5,0.7l2.2,1.9l0.3,7l2.2,2.9l-2.8,0.4
	l-4.7,3l0.4,1l4.2,4l-0.3,2l-3.9,2l-3.6,0.1l-0.9,1.9h-1.9l-0.9-2l-3.2-0.8l-0.1-3.3l-2.8-1.9l0.3-2.4l-1.9-2.6l0.5-3.4l2.6-1.2
	L481,180.7L481,180.7z"/>
<g id="dk">
	<path class="st0" d="M486.7,164l-4.2,4.7l-0.2,3.1l1.9,5l3-0.6l-0.4-4.1l2.1-2.3l0-1.8l-1.5-3.8L486.7,164L486.7,164z"/>
	<path class="st0" d="M491.5,172.3l-0.9,0l-1.2,1.1l0.2,1.8l3,0.1l0.2-2L491.5,172.3L491.5,172.3z"/>
</g>
<path id="ch" class="st0" d="M482.8,202.7l-4.5,4.7l0.1,0.5l1.8-0.6l1.6,2.3l2.8-1l1.9,1.5l0.8-0.4l2.4-3.7l-0.6-0.6l-2.3-0.1
	l-1.1-2.3L482.8,202.7L482.8,202.7z"/>
<path id="cz" class="st0" d="M498.6,198.1h3h1.5l2.4,1.7l4.5-3.7l-4.4-3.1l-4.3-2.1l-3,0.5l-4,2.6L498.6,198.1L498.6,198.1z"/>
<path id="sk" class="st0" d="M506.2,200.4l0.7,0.6l0.1,1.1l7.8-0.2l5.8-2.5l-0.1-2.5l-1.1,0.5l-1.6-0.8l-1,0l-2.6,1l-3.5-0.8
	L506.2,200.4L506.2,200.4z"/>
<path id="at" class="st0" d="M490.7,203.5l-0.7,1.4l0.6,1l2.4-0.5h2l2.2,1.9l4.7-0.8l3.4-2l0.9-1.4l-0.1-1.8l-3.1-2.3l-4.1,0
	l-0.3,2.3l-4.4,2.1L490.7,203.5L490.7,203.5z"/>
<path id="hu" class="st0" d="M507.1,202.9l-1.2,1.9l0.1,2.8l1.9,1l5.8,0.2l8.1-6.8l0-1.5L521,200l-5.9,2.7L507.1,202.9L507.1,202.9z
	"/>
<path id="si" class="st0" d="M505.1,205.4l-2.6,1.6l-4.8,1.1l1,2.8l3.4,0l3.1-2.6L505.1,205.4L505.1,205.4z"/>
<path id="hr" class="st0" d="M506,208.6l-3.6,3h-3.7l-0.4,2.6l1.7,0.4l0.8-1.2l1.3,1.2l1.1,3.7l7.2,3.4l0.7-0.8l-7.3-7.6l0.7-1.4
	l7-0.3l0.7-2.2l-4.5,0.1L506,208.6L506,208.6z"/>
<path id="ba" class="st0" d="M505.1,212.5l-0.4,0.6l6.9,7.1l2.5-3.7L514,215l-2.2-2.7L505.1,212.5L505.1,212.5z"/>
<path id="ua" class="st0" d="M526.3,186.1l-3,1.7l0.7,3.1l-2.7,5.8l0,2.5l1.3,0.8l8.3,0.4l2.3-1.9l2.5,0.8l3.5,4.7l-2.6,4.7l3.1,0.9
	l4-4.6l2.3,0.4l2.1,1.5l-1.9,2.5l2.6,4h2.7l1.4-2.7l2.9-0.6l0.1-2.2l-5.4-0.8l0.2-2.3h5.2l5.6-4.5l2.5-2.2l0.4-6.8l-11-1l-4.5-6.4
	l-3.1-1.1l-3.8,0.2l-1.7,4.2l-7.8,0.1l-2.5-1.2L526.3,186.1L526.3,186.1z"/>
<path id="md" class="st0" d="M531.6,201l3.2,4.9l-0.3,2.8l1.1,0.1l2.7-4.5l-3.2-4l-1.8-0.8L531.6,201L531.6,201z"/>
<path id="ro" class="st0" d="M522.9,200.9l-0.3,1.5l-5.9,4.9l4.9,7.3l3.2,2.2h5.7l1.9-1.6l2.5-0.3l1.9,1.1l3.3-3.8l-0.6-1.9
	l-3.4-0.9l-2.3-0.1l0.1-3.2l-3.1-4.8L522.9,200.9L522.9,200.9z"/>
<path id="rs" class="st0" d="M516.1,208l-2.1,1.6h-1l-0.7,2.2l2.5,2.9l0.2,2.3l-3.1,4.3l0.4,1.3l1.8,0.3l1.4-1.9l0.8-0.1l1.3,1.2
	l3.9-1.2l-0.3-5.6L516.1,208L516.1,208z"/>
<path id="bg_1_" class="st1" d="M522.1,216l0.2,5.1l1.7,3.6l6.4,0.1l2.9-2.1l2.8-1.1l-0.7-3.2l0.6-1.7l-1.5-0.8l-2,0.2l-1.6,1.6
	l-6.6,0.1L522.1,216L522.1,216z"/>
<path id="al" class="st0" d="M514.6,223.5v4.7l1.3,2.5l1-0.1l1.7-3l-1-1.4l-0.4-3.4l-1.3-1.2L514.6,223.5L514.6,223.5z"/>
<path id="mk" class="st0" d="M521.6,221.7l-3.4,1.1l0.2,2.9l0.8,1l4.1-1.9L521.6,221.7L521.6,221.7z"/>
</svg>
